<svg width="16" height="18" viewBox="0 0 16 18" fill="none" xmlns="http://www.w3.org/2000/svg">
<path d="M15.716 10.704C15.8973 10.5141 15.9966 10.2605 15.9925 9.99802C15.9884 9.73553 15.8813 9.48517 15.6942 9.30099C15.5071 9.11681 15.2551 9.01357 14.9926 9.01357C14.7301 9.01358 14.4781 9.11681 14.291 9.301L9.00101 14.671V1C9.00101 0.734784 8.89565 0.48043 8.70811 0.292893C8.52058 0.105357 8.26622 0 8.00101 0C7.73579 0 7.48144 0.105357 7.2939 0.292893C7.10636 0.48043 7.00101 0.734784 7.00101 1V14.665L1.71401 9.3C1.52599 9.12061 1.27553 9.02145 1.01567 9.02353C0.755806 9.02561 0.506962 9.12877 0.321847 9.31116C0.136732 9.49354 0.0298867 9.74083 0.0239435 10.0006C0.0180003 10.2604 0.113426 10.5123 0.290007 10.703L7.11201 17.628C7.2283 17.7459 7.36686 17.8396 7.51965 17.9035C7.67243 17.9674 7.83639 18.0003 8.00201 18.0003C8.16762 18.0003 8.33158 17.9674 8.48437 17.9035C8.63715 17.8396 8.77572 17.7459 8.89201 17.628L15.715 10.703L15.716 10.704Z" fill="#292D33"/>
</svg>
