<svg width="199" height="58" viewBox="0 0 199 58" fill="none" xmlns="http://www.w3.org/2000/svg">
<g clip-path="url(#clip0_788_13756)">
<path d="M8.13458 46.6659C7.57714 46.2152 7.03926 45.7315 6.52096 45.2148C-2.3532 36.4042 -2.14376 21.6964 6.98902 12.3664C16.1218 3.03646 30.719 2.61774 39.5916 11.4251C40.1066 11.9351 40.5953 12.4712 41.0561 13.0313C32.1073 5.75171 18.6652 6.63869 10.0671 15.4285C1.46905 24.2183 0.780446 37.7578 8.13458 46.6659Z" fill="#4169E1"/>
<path d="M49.2846 10.9058C49.8343 11.3505 50.3612 11.8231 50.8633 12.3217C59.5264 20.9246 59.2234 35.383 50.1874 44.6139C41.1514 53.8448 26.8033 54.3626 18.137 45.755C17.635 45.2564 17.1584 44.7327 16.709 44.1856C25.4562 51.283 38.6746 50.3225 47.1807 41.6286C55.6867 32.9346 56.4547 19.6141 49.2846 10.9058Z" fill="#4169E1"/>
<path d="M44.3038 6.60026C53.8633 15.6554 54.4758 30.6396 45.673 40.0655C45.1579 40.6184 44.6227 41.1389 44.0673 41.6269C51.3199 32.1754 50.2553 18.3962 41.251 9.87007C32.2468 1.34395 18.5302 1.11861 9.6084 8.9815C10.059 8.39338 10.5419 7.82337 11.057 7.27148C19.8598 -2.156 34.7473 -2.45645 44.3038 6.60026Z" fill="#262856"/>
<path d="M18.7554 54.8724C6.68257 48.3615 1.81471 33.8264 7.88525 22.4044C8.23886 21.7427 8.62544 21.0994 9.04351 20.4771C4.52154 31.5378 9.50046 44.7801 20.8672 50.909C32.234 57.0379 45.9364 53.8688 52.567 43.9459C52.2844 44.6399 51.9666 45.319 51.615 45.9803C45.5365 57.4007 30.8283 61.3817 18.7554 54.8724Z" fill="#262856"/>
<path d="M40.5488 19.745V19.7434V19.745H32.6663L30.5703 27.4625H30.5719H38.4544L40.5488 19.745Z" fill="#4169E1"/>
<path d="M29.4804 19.7451H23.6987C23.095 19.7449 22.5081 19.9446 22.0281 20.3133C21.5482 20.6821 21.2019 21.1995 21.0426 21.786L19.502 27.4626H27.386L29.4804 19.7451Z" fill="#262856"/>
<path d="M27.6572 38.2469H33.439C34.0428 38.2467 34.6297 38.0468 35.1096 37.6777C35.5895 37.3087 35.9358 36.7911 36.0951 36.2045L37.6357 30.5247H29.7516L27.6572 38.2437V38.2469Z" fill="#262856"/>
<path d="M26.5966 30.5375V30.5359V30.5375H18.7125L16.6182 38.2549H16.6198H24.5022L26.5966 30.5375Z" fill="#4169E1"/>
<path d="M30.5896 27.4353H27.4226L26.5801 30.5357H26.5817H29.747L30.5896 27.4353Z" fill="#4169E1"/>
<path d="M86.2868 17.9552C86.2868 21.6501 83.4213 23.4688 80.7558 23.8156C79.8231 23.9156 78.885 23.954 77.9474 23.9306H70.4473V4.01291H77.9855C78.837 3.99289 79.6889 4.03187 80.5352 4.12958C83.745 4.53231 85.5792 6.49643 85.5792 9.15096C85.5792 11.0847 84.5479 12.4703 82.5645 13.1639C85.0841 13.8271 86.2868 15.4445 86.2868 17.9552ZM74.9391 12.042H77.6364C78.0773 12.0438 78.5179 12.015 78.9549 11.9557C80.1861 11.7543 80.8748 11.0895 80.8748 9.76305C80.8748 8.43658 80.1005 7.79892 78.9263 7.62632C78.4702 7.56712 78.0106 7.53829 77.5507 7.54002H74.9391V12.042ZM81.5872 17.8992C81.5872 16.2835 80.5558 15.5324 79.2944 15.4173C78.8375 15.3694 78.3781 15.3502 77.9188 15.3598H74.9391V20.3811H78.0918C78.5503 20.3811 79.0088 20.3811 79.3801 20.3524C80.5558 20.2645 81.5872 19.3983 81.5872 17.8992Z" fill="#4169E1"/>
<path d="M93.4543 18.6775C93.4543 19.3407 93.4543 19.6875 93.4829 20.0919C93.5686 20.7839 93.8843 21.0156 95.2282 20.9581V24.0457C94.3322 24.1412 93.4319 24.1897 92.5309 24.1911C90.381 24.1911 89.1212 23.3537 89.0054 21.332C88.9482 20.5825 88.9482 19.8314 88.9482 18.7638V2.7168H93.4543V18.6775Z" fill="#4169E1"/>
<path d="M112.223 23.9308H107.752V21.3034L106.465 23.3539C105.432 24.0459 104.344 24.3351 102.911 24.3351C99.7581 24.3351 97.8668 22.5452 97.5161 20.4388C97.3991 19.4906 97.3514 18.535 97.3733 17.5797V8.54541H101.845V16.5985C101.847 17.3026 101.885 18.0062 101.959 18.7064C102.159 20.2646 102.962 21.1884 104.71 21.1884C106.544 21.1884 107.747 19.6014 107.747 16.7727V8.54541H112.218L112.223 23.9308Z" fill="#4169E1"/>
<path d="M130.134 17.4071H119.415C119.674 20.3509 120.935 21.2171 122.625 21.2171C124.202 21.2171 125.262 20.3509 125.52 18.9078H129.963C129.132 22.4589 126.266 24.3415 122.541 24.3415C118.271 24.3415 114.925 21.7141 114.925 16.2884C114.925 11.6698 117.99 8.14746 122.834 8.14746C127.705 8.14746 130.228 11.8711 130.228 15.9784C130.221 16.4559 130.19 16.9328 130.134 17.4071ZM119.531 14.5433H125.549C125.29 12.3778 124.288 11.2527 122.625 11.2527C121.021 11.2591 119.904 12.2691 119.531 14.5433Z" fill="#4169E1"/>
<path d="M142.857 7.53521V23.9306H138.386V7.53521H131.795V4.01929H149.448V7.53521H142.857Z" fill="#4169E1"/>
<path d="M163.835 17.4071H153.112C153.371 20.3509 154.63 21.2171 156.322 21.2171C157.899 21.2171 158.959 20.3509 159.216 18.9078H163.658C162.827 22.4589 159.962 24.3415 156.236 24.3415C151.966 24.3415 148.62 21.7141 148.62 16.2884C148.62 11.6698 151.686 8.14746 156.53 8.14746C161.401 8.14746 163.923 11.8711 163.923 15.9784C163.918 16.4558 163.888 16.9327 163.835 17.4071ZM153.231 14.5433H159.249C158.992 12.3778 157.989 11.2527 156.326 11.2527C154.722 11.2591 153.604 12.2691 153.231 14.5433Z" fill="#4169E1"/>
<path d="M180.656 14.2314H176.277C175.96 12.1251 174.901 11.2589 173.412 11.2589C171.52 11.2589 170.316 12.8171 170.316 16.0789C170.316 19.6587 171.549 21.2169 173.412 21.2169C174.787 21.2169 175.876 20.258 176.22 18.4745H180.663C180.061 22.3436 177.139 24.3349 173.155 24.3349C168.913 24.3349 165.697 21.5925 165.697 16.3681C165.697 11.0847 169.188 8.14087 173.521 8.14087C177.791 8.14087 180.428 10.797 180.656 14.2314Z" fill="#4169E1"/>
<path d="M198.173 15.2415V23.9307H193.667V15.9399C193.667 15.363 193.667 14.5831 193.609 13.8032C193.495 12.245 192.635 11.2638 190.888 11.2638C189.111 11.2925 187.793 12.8795 187.793 16.8061V23.9355H183.293V2.56982H187.793V10.9697L189.062 9.12223C190.093 8.43023 191.182 8.14097 192.615 8.14097C195.824 8.14097 197.692 9.69916 198.031 12.3841C198.148 13.3318 198.195 14.2868 198.173 15.2415Z" fill="#4169E1"/>
<path d="M84.7116 38.0806H80.1832C79.9548 36.2332 78.9234 35.0441 77.0306 35.0441C75.6264 35.0441 74.6236 35.7074 74.6236 37.1505C74.6236 38.6512 75.6264 39.4598 78.8076 40.211C83.1646 41.2498 85.0559 43.3273 85.0559 46.4741C85.0559 50.3416 81.4732 52.4208 77.5177 52.4208C72.6752 52.4208 69.4654 50.3432 69.1211 46.041H73.6494C74.0508 48.0914 75.6264 49.0775 77.432 49.0775C79.0662 49.0775 80.3562 48.2113 80.3562 46.8545C80.3562 45.4689 79.4391 44.5164 76.745 43.8819C72.5038 42.8127 69.9224 41.3984 69.9224 37.5884C69.9224 33.8647 73.3321 31.6992 77.1734 31.6992C82.1031 31.7008 84.2816 34.472 84.7116 38.0806Z" fill="#262856"/>
<path d="M104.743 44.3166C104.743 49.111 101.728 52.4272 96.6906 52.4272C91.6133 52.4272 88.6367 49.1078 88.6367 44.3166C88.6367 39.5253 91.618 36.2332 96.6906 36.2332C101.735 36.2332 104.743 39.5237 104.743 44.3166ZM100.1 44.3166C100.1 41.1123 98.8103 39.3511 96.6906 39.3511C94.5407 39.3511 93.2507 41.1091 93.2507 44.3166C93.2507 47.5241 94.5407 49.3092 96.6906 49.3092C98.8103 49.3092 100.1 47.5193 100.1 44.3166Z" fill="#262856"/>
<path d="M113.771 46.7699C113.771 47.4332 113.771 47.78 113.799 48.1843C113.885 48.8763 114.199 49.108 115.545 49.0505V52.1381C114.649 52.2337 113.748 52.2822 112.847 52.2835C110.697 52.2835 109.436 51.4461 109.322 49.4244C109.265 48.6749 109.265 47.9238 109.265 46.8562V30.8076H113.764L113.771 46.7699Z" fill="#262856"/>
<path d="M134.548 52.0228H130.075V49.3955L128.787 51.4459C127.754 52.1379 126.666 52.4272 125.233 52.4272C122.08 52.4272 120.189 50.6372 119.838 48.5309C119.721 47.5826 119.674 46.627 119.696 45.6718V36.6375H124.167V44.6905C124.17 45.3947 124.208 46.0982 124.281 46.7985C124.481 48.3567 125.284 49.2804 127.032 49.2804C128.866 49.2804 130.069 47.6934 130.069 44.8647V36.6375H134.548V52.0228Z" fill="#262856"/>
<path d="M145.58 46.105C145.58 46.6244 145.58 47.1454 145.608 47.5433C145.723 49.0743 146.243 49.4195 148.531 49.2757V52.162C147.612 52.3137 146.682 52.3912 145.751 52.3937C142.399 52.3937 141.309 51.2958 141.137 49.0456C141.08 48.2657 141.08 47.5721 141.08 46.7075V39.6341H138.759V36.7574H141.08V32.8899H145.58V36.7574H148.818V39.6341H145.58V46.105Z" fill="#262856"/>
<path d="M157.902 32.9715C157.902 34.3858 156.928 35.2808 155.495 35.2808C154.062 35.2808 153.115 34.3858 153.115 32.9715C153.115 31.5859 154.067 30.6909 155.495 30.6909C156.923 30.6909 157.902 31.5859 157.902 32.9715ZM153.26 52.023V36.6376H157.759V52.023H153.26Z" fill="#262856"/>
<path d="M178.564 44.3166C178.564 49.111 175.549 52.4272 170.511 52.4272C165.434 52.4272 162.459 49.1078 162.459 44.3166C162.459 39.5253 165.439 36.2332 170.511 36.2332C175.555 36.2332 178.564 39.5237 178.564 44.3166ZM173.921 44.3166C173.921 41.1123 172.633 39.3511 170.511 39.3511C168.361 39.3511 167.073 41.1091 167.073 44.3166C167.073 47.5241 168.361 49.3092 170.511 49.3092C172.628 49.3092 173.921 47.5193 173.921 44.3166Z" fill="#262856"/>
<path d="M198.079 43.3337V52.0229H193.581V44.0321C193.581 43.4552 193.581 42.6753 193.522 41.8954C193.408 40.3372 192.548 39.3559 190.801 39.3559C189.024 39.3559 187.706 40.9717 187.706 44.8983V52.0277H183.206V36.6375H187.701V39.0619L188.97 37.2144C190.002 36.5224 191.09 36.2332 192.523 36.2332C195.733 36.2332 197.6 37.7929 197.94 40.4762C198.056 41.424 198.102 42.3791 198.079 43.3337Z" fill="#262856"/>
</g>
<defs>
<clipPath id="clip0_788_13756">
<rect width="198.167" height="58" fill="white"/>
</clipPath>
</defs>
</svg>
