<svg width="21" height="21" viewBox="0 0 21 21" fill="none" xmlns="http://www.w3.org/2000/svg">
<path d="M17.5 10.75C17.5002 10.6372 17.4754 10.5258 17.4273 10.4238C17.3792 10.3217 17.3091 10.2317 17.222 10.16L14.276 7.22001C14.1354 7.07956 13.9448 7.00067 13.746 7.00067C13.5472 7.00067 13.3566 7.07956 13.216 7.22001C13.1465 7.28948 13.0914 7.37195 13.0538 7.46271C13.0162 7.55348 12.9968 7.65077 12.9968 7.74901C12.9968 7.84726 13.0162 7.94455 13.0538 8.03532C13.0914 8.12608 13.1465 8.20855 13.216 8.27801L14.934 10L4.25 10C4.05109 10 3.86032 10.079 3.71967 10.2197C3.57902 10.3603 3.5 10.5511 3.5 10.75C3.5 10.9489 3.57902 11.1397 3.71967 11.2803C3.86032 11.421 4.05109 11.5 4.25 11.5L14.944 11.5L13.211 13.222C13.1414 13.2915 13.0861 13.374 13.0484 13.4649C13.0107 13.5557 12.9913 13.6531 12.9913 13.7515C12.9913 13.8499 13.0107 13.9473 13.0484 14.0381C13.0861 14.129 13.1414 14.2115 13.211 14.281C13.2807 14.3507 13.3634 14.406 13.4544 14.4437C13.5454 14.4814 13.643 14.5009 13.7415 14.5009C13.84 14.5009 13.9376 14.4814 14.0286 14.4437C14.1196 14.406 14.2023 14.3507 14.272 14.281L17.28 11.277C17.3502 11.2085 17.4059 11.1265 17.4437 11.0359C17.4815 10.9454 17.5006 10.8481 17.5 10.75Z" fill="white"/>
</svg>
