<svg width="46" height="46" viewBox="0 0 46 46" fill="none" xmlns="http://www.w3.org/2000/svg">
<path d="M38.9608 13.5642H13.0152C10.9449 13.5642 9.26074 15.225 9.26074 17.2666V34.631C9.26074 36.6726 10.9449 38.3334 13.0152 38.3334H38.9608C41.0311 38.3334 42.7153 36.6726 42.7153 34.631V17.2666C42.7153 15.225 41.0311 13.5642 38.9608 13.5642Z" fill="#C9D7FF"/>
<path d="M35.3758 7.66675H7.04061C4.97031 7.66675 3.28613 9.32758 3.28613 11.3692V31.0925C3.28613 33.1341 4.97031 34.7949 7.04061 34.7949H35.3758C37.4461 34.7949 39.1303 33.1341 39.1303 31.0925V11.3692C39.1303 9.32758 37.4461 7.66675 35.3758 7.66675ZM5.78775 12.2725L14.1922 20.2971L5.78775 30.2378V12.2725ZM26.158 19.1346C23.5578 21.6987 19.2899 21.7352 16.6445 19.2115L7.1433 10.1337H35.2854L26.158 19.1346ZM16.0735 21.9256C17.655 23.0031 19.5076 23.5418 21.3643 23.5418C23.069 23.5418 24.7737 23.0841 26.2648 22.1767L35.1335 32.328H7.27475L16.0735 21.9256ZM28.1996 20.6091L36.6328 12.2928V30.2621L28.1996 20.6091Z" fill="#4169E1"/>
</svg>
