<svg width="25" height="25" viewBox="0 0 25 25" fill="none" xmlns="http://www.w3.org/2000/svg">
<g clip-path="url(#clip0_15_1420)">
<path d="M11.1875 7.8258C11.0164 7.72703 10.8224 7.67505 10.6248 7.67508C10.4273 7.67511 10.2332 7.72716 10.0622 7.82598C9.89114 7.92481 9.74914 8.06693 9.65045 8.23805C9.55176 8.40917 9.49987 8.60326 9.5 8.80081V15.3003C9.49987 15.4978 9.55176 15.6919 9.65045 15.8631C9.74914 16.0342 9.89114 16.1763 10.0622 16.2751C10.2332 16.3739 10.4273 16.426 10.6248 16.426C10.8224 16.4261 11.0164 16.3741 11.1875 16.2753L17.375 12.6993C17.489 12.6335 17.5837 12.5388 17.6495 12.4248C17.7153 12.3108 17.75 12.1815 17.75 12.0498C17.75 11.9182 17.7153 11.7888 17.6495 11.6748C17.5837 11.5608 17.489 11.4661 17.375 11.4003L11.1875 7.8258ZM0.5 12.0498C0.5 8.86721 1.76428 5.81496 4.01472 3.56452C6.26516 1.31409 9.3174 0.0498047 12.5 0.0498047C15.6826 0.0498047 18.7348 1.31409 20.9853 3.56452C23.2357 5.81496 24.5 8.86721 24.5 12.0498C24.5 15.2324 23.2357 18.2847 20.9853 20.5351C18.7348 22.7855 15.6826 24.0498 12.5 24.0498C9.3174 24.0498 6.26516 22.7855 4.01472 20.5351C1.76428 18.2847 0.5 15.2324 0.5 12.0498ZM12.5 1.5498C11.1211 1.5498 9.75574 1.8214 8.48182 2.34907C7.20791 2.87674 6.05039 3.65017 5.07538 4.62518C4.10036 5.6002 3.32694 6.75771 2.79926 8.03163C2.27159 9.30555 2 10.6709 2 12.0498C2 13.4287 2.27159 14.7941 2.79926 16.068C3.32694 17.3419 4.10036 18.4994 5.07538 19.4744C6.05039 20.4494 7.20791 21.2229 8.48182 21.7505C9.75574 22.2782 11.1211 22.5498 12.5 22.5498C15.2848 22.5498 17.9555 21.4436 19.9246 19.4744C21.8938 17.5053 23 14.8346 23 12.0498C23 9.26503 21.8938 6.59432 19.9246 4.62518C17.9555 2.65605 15.2848 1.5498 12.5 1.5498Z" fill="white"/>
</g>
<defs>
<clipPath id="clip0_15_1420">
<rect width="24" height="24" fill="white" transform="translate(0.5 0.0498047)"/>
</clipPath>
</defs>
</svg>
