<svg width="24" height="24" viewBox="0 0 24 24" fill="none" xmlns="http://www.w3.org/2000/svg">
<g clip-path="url(#clip0_27_2276)">
<path d="M0.383789 20.376C0.383789 21.2544 1.60509 22.0968 3.77901 22.718C5.95293 23.3391 8.9014 23.688 11.9758 23.688C15.0502 23.688 17.9986 23.3391 20.1726 22.718C22.3465 22.0968 23.5678 21.2544 23.5678 20.376C23.5678 19.4976 22.3465 18.6552 20.1726 18.0341C17.9986 17.413 15.0502 17.064 11.9758 17.064C8.9014 17.064 5.95293 17.413 3.77901 18.0341C1.60509 18.6552 0.383789 19.4976 0.383789 20.376Z" fill="#EEF2FF"/>
<path d="M20.592 18.648L9.62402 14.424V5.01598L20.592 0.79198C21.192 0.55198 21.84 1.00798 21.84 1.65598V17.76C21.84 18.432 21.192 18.864 20.592 18.648Z" fill="#4169E1"/>
<path d="M9.59989 14.424H2.75989C2.39989 14.424 2.08789 14.136 2.08789 13.752V5.73599C2.08789 5.32799 2.39989 5.01599 2.80789 5.01599H9.59989C9.62389 5.01599 9.62389 5.03999 9.62389 5.03999V14.4L9.59989 14.424Z" fill="#AFB8F2"/>
<path d="M8.71235 20.328L6.50435 20.64C6.21635 20.688 5.95235 20.472 5.90435 20.184L4.89635 13.32C4.84835 13.032 5.06435 12.768 5.35235 12.72L7.56035 12.408C7.84835 12.36 8.11235 12.576 8.16035 12.864L9.16835 19.728C9.21635 20.016 9.00035 20.28 8.71235 20.328Z" fill="#AFB8F2"/>
<path d="M12.1924 11.496V8.06402C12.1924 7.51202 12.6244 7.08002 13.1764 7.08002C13.7284 7.08002 14.1604 7.51202 14.1604 8.06402V11.496C14.1604 12.048 13.7284 12.48 13.1764 12.48C12.6244 12.48 12.1924 12.024 12.1924 11.496Z" fill="white"/>
</g>
<defs>
<clipPath id="clip0_27_2276">
<rect width="24" height="24" fill="white"/>
</clipPath>
</defs>
</svg>
