<svg width="15" height="13" viewBox="0 0 15 13" fill="none" xmlns="http://www.w3.org/2000/svg">
<path d="M14.886 3.36232C14.886 2.04525 13.9173 0.985737 12.7202 0.985737C11.0987 0.909639 9.44506 0.880371 7.75628 0.880371C7.66847 0.880371 7.58067 0.880371 7.49286 0.880371C7.40506 0.880371 7.31726 0.880371 7.22945 0.880371C5.5436 0.880371 3.88701 0.909639 2.26555 0.985737C1.0714 0.985737 0.102622 2.0511 0.102622 3.36818C0.029451 4.41013 -0.00274411 5.45208 0.000182716 6.49403C-0.00274411 7.53598 0.029451 8.57793 0.0996949 9.62281C0.0996949 10.9399 1.06848 12.0082 2.26262 12.0082C3.96604 12.0872 5.71335 12.1223 7.48994 12.1194C9.26945 12.1252 11.0109 12.0901 12.7173 12.0082C13.9143 12.0082 14.8831 10.9399 14.8831 9.62281C14.9534 8.57793 14.9855 7.53598 14.9826 6.4911C14.9885 5.44915 14.9563 4.4072 14.886 3.36232ZM6.05872 9.36525V3.61403L10.3026 6.48818L6.05872 9.36525Z" fill="black"/>
</svg>
