<svg width="20" height="20" viewBox="0 0 20 20" fill="none" xmlns="http://www.w3.org/2000/svg">
<path d="M4.00012 7.17512C4.08383 7.08482 4.18451 7.01191 4.2964 6.96053C4.4083 6.90915 4.52922 6.88031 4.65226 6.87567C4.7753 6.87102 4.89805 6.89066 5.0135 6.93346C5.12895 6.97627 5.23484 7.04139 5.32512 7.12512L10.0001 11.5339L14.6751 7.12512C14.7654 7.0414 14.8713 6.97628 14.9867 6.93349C15.1022 6.89069 15.2249 6.87106 15.348 6.8757C15.471 6.88034 15.5919 6.90918 15.7038 6.96055C15.8157 7.01192 15.9164 7.08483 16.0001 7.17512C16.0838 7.2654 16.149 7.37129 16.1917 7.48674C16.2345 7.60219 16.2542 7.72494 16.2495 7.84797C16.2449 7.97101 16.2161 8.09193 16.1647 8.20382C16.1133 8.31572 16.0404 8.4164 15.9501 8.50012L10.6376 13.5001C10.4643 13.6609 10.2366 13.7502 10.0001 13.7502C9.76368 13.7502 9.53598 13.6609 9.36262 13.5001L4.05012 8.50012C3.95982 8.41641 3.88691 8.31573 3.83553 8.20383C3.78414 8.09194 3.75531 7.97102 3.75067 7.84797C3.74602 7.72493 3.76566 7.60218 3.80846 7.48673C3.85127 7.37128 3.91639 7.2654 4.00012 7.17512Z" fill="#292D33"/>
</svg>
