<svg width="46" height="46" viewBox="0 0 46 46" fill="none" xmlns="http://www.w3.org/2000/svg">
<path d="M33.3639 7.26831H18.7687C16.7518 7.26831 15.1211 8.90347 15.1211 10.916V40.1017C15.1211 42.1187 16.7562 43.7494 18.7687 43.7494H33.3639C35.3809 43.7494 37.0115 42.1142 37.0115 40.1017V10.916C37.0115 8.90347 35.3764 7.26831 33.3639 7.26831Z" fill="#C9D7FF"/>
<path d="M28.7996 4.53262C29.8059 4.53262 30.6234 5.35019 30.6234 6.35644V35.5422C30.6234 36.5484 29.8059 37.366 28.7996 37.366H14.209C13.2027 37.366 12.3852 36.5484 12.3852 35.5422V6.35644C12.3852 5.35019 13.2027 4.53262 14.209 4.53262H28.7996ZM28.7996 1.79688H14.209C11.6889 1.79688 9.64941 3.84082 9.64941 6.35644V35.5422C9.64941 38.0623 11.6934 40.1018 14.209 40.1018H28.8041C31.3242 40.1018 33.3637 38.0578 33.3637 35.5422V6.35644C33.3637 3.84082 31.3197 1.79688 28.7996 1.79688Z" fill="#4169E1"/>
<path d="M22.4162 36.4585H20.5924C19.5906 36.4585 18.7686 35.6365 18.7686 34.6347V32.8109C18.7686 31.8091 19.5906 30.9871 20.5924 30.9871H22.4162C23.418 30.9871 24.24 31.8091 24.24 32.8109V34.6347C24.24 35.6365 23.418 36.4585 22.4162 36.4585Z" fill="#4169E1"/>
</svg>
