<svg width="44" height="44" viewBox="0 0 44 44" fill="none" xmlns="http://www.w3.org/2000/svg">
<g clip-path="url(#clip0_27_2456)">
<path d="M12.3831 16.4818C9.75384 16.1244 6.68678 17.2611 4.5696 19.3786L1.03411 22.9141C0.634374 23.3138 0.552343 23.9327 0.835546 24.4229C1.11191 24.9066 1.69069 25.153 2.24147 25.0056C4.48496 24.404 7.45436 24.2038 8.1845 24.7614L12.3831 16.4818Z" fill="#FF637B"/>
<path d="M27.4408 31.6364L19.1492 35.6364C19.6111 36.2656 19.5746 38.2558 19.0362 41.9004C18.9558 42.4394 19.2344 42.9612 19.7104 43.1992C20.1918 43.4427 20.7745 43.3486 21.156 42.9671L24.6915 39.4316C26.6889 37.4342 27.7686 34.3743 27.4408 31.6364Z" fill="#E63950"/>
<path d="M20.3978 36.0628C17.4811 37.6361 17.11 37.7246 16.668 38.0251C16.1728 38.3431 15.5364 38.2725 15.1123 37.8483L6.27342 29.0095C5.86685 28.6029 5.77863 27.9486 6.09666 27.4538C6.39712 27.0117 6.4326 26.7289 8.02342 23.6885L11.5237 23.653L20.3626 32.4919L20.3978 36.0628Z" fill="#7C8388"/>
<path d="M20.3975 36.0628C17.4808 37.6361 17.1097 37.7246 16.6676 38.0251C16.1725 38.3431 15.5361 38.2725 15.112 37.8483L10.6924 33.4287L15.9958 28.1256L20.362 32.4919L20.3975 36.0628Z" fill="#575F64"/>
<path d="M20.3968 36.0628L8.02246 23.6884C14.1566 12.1097 21.5283 4.87924 30.0842 2.05112L36.0947 8.02604L41.9634 13.8952C39.1353 22.4157 31.9228 29.8401 20.3968 36.0628Z" fill="#FAECD8"/>
<path d="M20.3971 36.0628L14.2275 29.8932L36.0951 8.02604L41.9639 13.8949C39.1357 22.4157 31.9232 29.8402 20.3971 36.0628Z" fill="#F4D7AF"/>
<path d="M32.241 11.8799L32.188 11.8268C29.7485 9.38736 25.7886 9.38704 23.3491 11.8268C20.9097 14.2663 20.9097 18.2262 23.3491 20.6653L23.4022 20.7184C25.8416 23.0872 29.7661 23.0872 32.188 20.6653C34.6098 18.2438 34.6098 14.319 32.241 11.8799Z" fill="#64E1DC"/>
<path d="M32.1881 20.6654C29.7663 23.0872 25.8418 23.0872 23.4023 20.7184L32.2412 11.8799C34.61 14.319 34.61 18.2438 32.1881 20.6654Z" fill="#00C8C8"/>
<path d="M41.9632 13.8949C39.2588 13.7005 36.3597 12.4278 34.0085 10.112L33.9554 10.0589C31.5866 7.69012 30.2607 4.77313 30.084 2.0508C30.8971 1.76792 31.7279 1.5381 32.5589 1.34376C35.5817 0.654312 38.7461 0.495132 42.0341 0.848973C42.3522 0.884129 42.6526 1.04331 42.8294 1.2907C43.0062 1.46746 43.1302 1.69728 43.1478 1.96258C43.5192 5.23276 43.3245 8.39715 42.6351 11.4199C42.4407 12.251 42.2285 13.0641 41.9632 13.8949Z" fill="#FF637B"/>
<path d="M41.9645 13.8949C39.2601 13.7005 36.361 12.4278 34.0098 10.112L42.8307 1.29071C43.0075 1.46746 43.1312 1.69728 43.1491 1.96258C43.5202 5.23309 43.3258 8.39715 42.6364 11.4199C42.4421 12.251 42.2298 13.0641 41.9645 13.8949Z" fill="#E63950"/>
<path d="M20.1842 25.0673C20.1667 24.7666 20.043 24.5016 19.8307 24.2894C19.6185 24.0065 19.2829 23.8121 18.9294 23.8121C14.333 23.7767 13.3076 25.403 13.0426 25.6683C5.38835 33.3225 5.2998 37.0882 5.2998 37.4768C5.31738 37.8128 5.44108 38.1136 5.6709 38.3431C5.68848 38.3606 5.70638 38.3785 5.74186 38.3785C5.91862 38.5553 6.16602 38.6614 6.43099 38.679C7.06738 38.7496 10.6559 38.6614 18.3457 30.9716C20.0785 29.2392 20.2021 27.6305 20.1842 25.0673Z" fill="#FF637B"/>
<path d="M20.1846 25.0674C20.2025 27.6305 20.0788 29.2393 18.346 30.9717C10.6563 38.6615 7.06771 38.7497 6.43164 38.679C6.16634 38.6615 5.91895 38.5553 5.74219 38.3786L19.8314 24.2894C20.0433 24.5016 20.167 24.7666 20.1846 25.0674Z" fill="#E63950"/>
</g>
<defs>
<clipPath id="clip0_27_2456">
<rect width="42.6667" height="42.6667" fill="white" transform="translate(0.666992 0.666666)"/>
</clipPath>
</defs>
</svg>
