<svg width="24" height="24" viewBox="0 0 24 24" fill="none" xmlns="http://www.w3.org/2000/svg">
<path d="M1.05566 20.64C1.05566 21.4611 2.2011 22.2486 4.24 22.8292C6.27889 23.4098 9.04423 23.736 11.9277 23.736C14.8111 23.736 17.5764 23.4098 19.6153 22.8292C21.6542 22.2486 22.7997 21.4611 22.7997 20.64C22.7997 19.8189 21.6542 19.0314 19.6153 18.4508C17.5764 17.8702 14.8111 17.544 11.9277 17.544C9.04423 17.544 6.27889 17.8702 4.24 18.4508C2.2011 19.0314 1.05566 19.8189 1.05566 20.64Z" fill="#EEF2FF"/>
<path d="M19.6083 20.64H13.4883V9.98401H22.8003V17.448C22.8003 19.2 21.3603 20.64 19.6083 20.64Z" fill="#AFB8F2"/>
<path d="M20.5683 0.64801H2.83228C2.08828 0.64801 1.48828 1.24801 1.48828 1.99201V16.608C1.48828 17.352 2.08828 17.952 2.83228 17.952H4.15228V21.504L9.48028 17.952H12.1443C17.5443 17.952 21.9123 13.584 21.9123 8.18401V2.01601C21.9123 1.27201 21.3123 0.64801 20.5683 0.64801Z" fill="#4169E1"/>
<path d="M11.8324 11.328H11.4724C8.90442 11.16 7.27242 9.04797 7.20042 8.97597C6.91242 8.59197 6.98442 8.03997 7.36842 7.72797C7.75242 7.43997 8.30442 7.51197 8.61642 7.89597C8.64042 7.91997 9.84042 9.45597 11.6164 9.55197C12.8164 9.62397 14.0404 9.04797 15.2884 7.79997C15.6244 7.46397 16.2004 7.46397 16.5364 7.79997C16.8724 8.13597 16.8724 8.71197 16.5364 9.04797C15.0244 10.584 13.4404 11.328 11.8324 11.328Z" fill="white"/>
</svg>
