<svg width="40" height="40" viewBox="0 0 40 40" fill="none" xmlns="http://www.w3.org/2000/svg">
<path d="M16.4146 32.6297H23.585L22.3628 30.0222L21.3035 27.5778H18.6961L17.6368 30.0222L16.4146 32.6297Z" fill="#FF7058"/>
<path d="M11.8514 32.6299H28.1477C29.044 32.6299 29.7773 33.3632 29.7773 34.2595V39.5558H10.3033V34.2595C10.2218 33.3632 10.9551 32.6299 11.8514 32.6299Z" fill="#FFD15C"/>
<path d="M17.6373 30.0224C18.2891 30.3483 18.941 30.6742 19.5929 30.9187L20.0002 31.0002L20.4077 30.8372C21.0595 30.5927 21.7114 30.2668 22.3633 29.9409L21.304 27.4964H18.778L17.6373 30.0224Z" fill="#F1543F"/>
<path d="M39.5557 4.92622V8.26697C39.5557 16.4151 34.5038 23.4225 27.4149 26.3559C25.1334 27.3337 22.6075 27.8226 20.0001 27.8226C17.3926 27.8226 14.8667 27.3337 12.5852 26.3559C5.49635 23.4226 0.444473 16.4151 0.444473 8.26705V4.92622H39.5557ZM3.70382 8.26697C3.70382 12.1781 5.08898 15.7633 7.45194 18.6151C10.4667 22.2003 14.9483 24.5633 20.0001 24.5633C25.0519 24.5633 29.5334 22.2818 32.5482 18.6151C34.8297 15.8447 36.2963 12.1781 36.2963 8.26697V8.18548H3.78531V8.26697H3.70382Z" fill="#F8B64C"/>
<path d="M7.28937 0.444662H32.7117C33.282 0.444662 33.6895 0.93352 33.6895 1.42246C33.6895 1.99281 33.2821 2.48174 32.7117 2.48174H7.28937C6.71902 2.48174 6.31157 1.99288 6.31157 1.50395C6.31165 0.93352 6.71902 0.444662 7.28937 0.444662Z" fill="#F8B64C"/>
<path d="M7.28775 2.48145V11.2814C7.28775 19.4296 12.3396 26.8444 19.9989 29.7778C27.6581 26.763 32.71 19.4296 32.71 11.2V2.48145H7.28775Z" fill="#FFD15C"/>
<path d="M19.9995 6.14833L18.2884 11.3631H12.8291L17.2291 14.6224L15.5995 19.8372L19.9995 16.578L24.3995 19.8372L22.7699 14.6224L27.1699 11.3631H21.7106L19.9995 6.14833Z" fill="white"/>
<path d="M7.37119 2.48145H32.7119V3.70363H7.37119V2.48145Z" fill="#FFC952"/>
</svg>
