<svg width="24" height="24" viewBox="0 0 24 24" fill="none" xmlns="http://www.w3.org/2000/svg">
<path d="M1.82422 20.904C1.82422 21.6678 2.88369 22.4003 4.76955 22.9405C6.65542 23.4806 9.2132 23.784 11.8802 23.784C14.5472 23.784 17.105 23.4806 18.9909 22.9405C20.8768 22.4003 21.9362 21.6678 21.9362 20.904C21.9362 20.1402 20.8768 19.4076 18.9909 18.8675C17.105 18.3274 14.5472 18.024 11.8802 18.024C9.2132 18.024 6.65542 18.3274 4.76955 18.8675C2.88369 19.4076 1.82422 20.1402 1.82422 20.904V20.904Z" fill="#EEF2FF"/>
<path opacity="0.4" d="M13.9439 7.12803C13.7039 6.79203 13.3679 6.52803 12.9839 6.40803C12.8159 6.36003 12.3599 6.19203 11.5679 6.00003C10.3439 5.73603 9.0959 5.61603 7.8239 5.61603C6.5279 5.61603 5.2799 5.73603 4.0799 6.00003C3.2879 6.16803 2.8079 6.33603 2.6639 6.38403C2.2799 6.50403 1.9199 6.76803 1.6799 7.10403C1.4399 7.44003 1.2959 7.84803 1.2959 8.25603V15.072C1.2959 15.84 1.7519 16.752 2.3759 17.184L6.6479 20.232C6.9599 20.472 7.3919 20.592 7.8239 20.592C8.2559 20.592 8.6879 20.472 8.9999 20.232L13.2719 17.184C13.8959 16.752 14.3519 15.84 14.3519 15.072V8.28003C14.3519 7.89603 14.2079 7.48803 13.9439 7.12803Z" fill="#AFB8F2"/>
<path d="M21.9118 3.36C21.5758 2.88 21.0958 2.52 20.5198 2.328C20.2798 2.232 19.6318 2.016 18.4798 1.752C16.7278 1.368 14.9518 1.176 13.1518 1.2C11.3278 1.2 9.52784 1.392 7.82384 1.752C6.67184 1.992 6.02384 2.232 5.78384 2.304C5.23184 2.496 4.72784 2.856 4.39184 3.336C4.03184 3.816 3.83984 4.392 3.83984 4.992V14.712C3.83984 15.792 4.51184 17.088 5.37584 17.736L11.4718 22.08C11.9278 22.416 12.5278 22.584 13.1518 22.584C13.7758 22.584 14.3758 22.392 14.8318 22.08L20.9278 17.712C21.8158 17.088 22.4638 15.792 22.4638 14.688V4.992C22.4638 4.44 22.2718 3.84 21.9118 3.36V3.36Z" fill="#4169E1"/>
<path d="M12.3364 8.35197C12.3364 10.128 11.5684 11.016 10.0564 11.016C8.54437 11.016 7.77637 10.128 7.77637 8.35197C7.77637 6.59997 8.54437 5.71198 10.0564 5.71198C11.5924 5.71198 12.3364 6.59997 12.3364 8.35197ZM10.6324 9.23997V7.51197C10.6324 6.69597 10.4404 6.28797 10.0564 6.28797C9.67237 6.28797 9.48037 6.69597 9.48037 7.51197V9.23997C9.48037 10.056 9.67237 10.44 10.0564 10.44C10.4404 10.44 10.6324 10.032 10.6324 9.23997ZM16.8004 5.71198L11.1604 15.744H9.91237L15.5524 5.71198H16.8004ZM18.8884 13.08C18.8884 13.968 18.6724 14.64 18.2644 15.072C17.8564 15.528 17.3044 15.744 16.6084 15.744C15.0964 15.744 14.3284 14.856 14.3284 13.08C14.3284 11.304 15.0964 10.416 16.6324 10.416C18.1444 10.44 18.8884 11.304 18.8884 13.08ZM17.1844 13.944V12.24C17.1844 11.4 16.9924 10.992 16.6084 10.992C16.2244 10.992 16.0324 11.4 16.0324 12.24V13.944C16.0324 14.76 16.2244 15.168 16.6324 15.168C17.0164 15.168 17.1844 14.76 17.1844 13.944Z" fill="white"/>
</svg>
