<svg width="24" height="24" viewBox="0 0 24 24" fill="none" xmlns="http://www.w3.org/2000/svg">
<path d="M0.816406 19.872C0.816406 20.6995 1.96943 21.4931 4.02183 22.0782C6.07423 22.6633 8.85788 22.992 11.7604 22.992C14.6629 22.992 17.4466 22.6633 19.499 22.0782C21.5514 21.4931 22.7044 20.6995 22.7044 19.872C22.7044 19.4623 22.4213 19.0566 21.8713 18.678C21.3214 18.2995 20.5152 17.9556 19.499 17.6658C18.4827 17.3761 17.2763 17.1463 15.9485 16.9895C14.6207 16.8327 13.1976 16.752 11.7604 16.752C10.3232 16.752 8.90011 16.8327 7.57232 16.9895C6.24453 17.1463 5.03807 17.3761 4.02183 17.6658C3.00559 17.9556 2.19946 18.2995 1.64947 18.678C1.09948 19.0566 0.816406 19.4623 0.816406 19.872Z" fill="#EEF2FF"/>
<path d="M17.1124 19.992H4.53641C4.12841 19.992 3.81641 19.68 3.81641 19.272V2.30398C3.81641 1.89598 4.12841 1.58398 4.53641 1.58398H21.4084C21.8164 1.58398 22.1284 1.89598 22.1284 2.30398V15C22.1284 17.76 19.8964 19.992 17.1124 19.992Z" fill="#4169E1"/>
<path d="M18.5757 12.696H1.67969V6.55199C1.67969 6.26399 1.91969 6.02399 2.20769 6.02399H18.5517C18.8397 6.02399 19.0797 6.26399 19.0797 6.55199V12.168C19.0797 12.456 18.8637 12.696 18.5757 12.696Z" fill="#AFB8F2"/>
<path d="M11.9036 10.032H8.87963C8.39963 10.032 8.01562 9.74399 8.01562 9.35999C8.01562 8.99999 8.39963 8.68799 8.87963 8.68799H11.9036C12.3836 8.68799 12.7676 8.97599 12.7676 9.35999C12.7676 9.71999 12.3836 10.032 11.9036 10.032Z" fill="white"/>
<path d="M9.59961 10.752V7.96803C9.59961 7.53603 9.95961 7.17603 10.3916 7.17603C10.8236 7.17603 11.1836 7.53603 11.1836 7.96803V10.752C11.1836 11.184 10.8236 11.544 10.3916 11.544C9.93561 11.544 9.59961 11.208 9.59961 10.752Z" fill="white"/>
</svg>
