<svg width="15" height="15" viewBox="0 0 15 15" fill="none" xmlns="http://www.w3.org/2000/svg">
<path d="M13.7969 0H1.28125C0.597656 0 0 0.492188 0 1.16797V13.7109C0 14.3906 0.597656 14.9961 1.28125 14.9961H13.793C14.4805 14.9961 14.9961 14.3867 14.9961 13.7109V1.16797C15 0.492188 14.4805 0 13.7969 0ZM4.64844 12.5H2.5V5.82031H4.64844V12.5ZM3.64844 4.80469H3.63281C2.94531 4.80469 2.5 4.29297 2.5 3.65234C2.5 3 2.95703 2.5 3.66016 2.5C4.36328 2.5 4.79297 2.99609 4.80859 3.65234C4.80859 4.29297 4.36328 4.80469 3.64844 4.80469ZM12.5 12.5H10.3516V8.84766C10.3516 7.97266 10.0391 7.375 9.26172 7.375C8.66797 7.375 8.31641 7.77734 8.16016 8.16797C8.10156 8.30859 8.08594 8.5 8.08594 8.69531V12.5H5.9375V5.82031H8.08594V6.75C8.39844 6.30469 8.88672 5.66406 10.0234 5.66406C11.4336 5.66406 12.5 6.59375 12.5 8.59766V12.5Z" fill="black"/>
</svg>
