<svg width="19" height="18" viewBox="0 0 19 18" fill="none" xmlns="http://www.w3.org/2000/svg">
<path d="M16.2497 2.75625V2.7C16.2497 2.64375 16.1934 2.5875 16.1934 2.53125C16.1934 2.53125 16.1934 2.475 16.1372 2.475C16.1372 2.41875 16.0809 2.41875 16.0809 2.3625H16.0247C16.0247 2.3625 15.9684 2.3625 15.9684 2.30625H15.9122H15.8559H15.7997C15.7434 2.25 15.6872 2.25 15.6872 2.25H15.6309H15.5747C15.5184 2.25 15.5184 2.25 15.4622 2.30625H15.4059L3.03094 8.49375C2.80594 8.60625 2.69344 8.83125 2.74969 9.05625C2.80594 9.28125 2.97469 9.50625 3.19969 9.50625L6.57469 10.0687H6.68719C6.79969 10.0687 6.91219 10.0125 7.02469 9.95625L11.9184 6.3L8.48719 10.2937C8.43094 10.35 8.43094 10.4062 8.37469 10.4625V15.1312C8.37469 15.4125 8.54344 15.6375 8.82469 15.6937H8.93719C9.16219 15.6937 9.33093 15.5812 9.44343 15.4125L10.8497 12.8812L14.2247 15.5812C14.3372 15.6375 14.4497 15.6937 14.5622 15.6937C14.6184 15.6937 14.7309 15.6937 14.7872 15.6375C14.9559 15.5812 15.1247 15.3562 15.1247 15.1875L16.2497 2.8125V2.75625" fill="white"/>
</svg>
