<svg width="47" height="47" viewBox="0 0 47 47" fill="none" xmlns="http://www.w3.org/2000/svg">
<path d="M35.3975 11.4898L35.7438 7.68144C35.7775 7.31005 35.9404 6.9624 36.2041 6.6987L40.9759 1.92674C41.287 1.61556 41.7917 1.61556 42.1029 1.92674L44.9604 4.78432C45.2716 5.0955 45.2716 5.60014 44.9604 5.91132L40.1885 10.6833C39.9248 10.947 39.577 11.1098 39.2057 11.1436L35.3975 11.4898Z" fill="#FF6464"/>
<path d="M19.4589 46.5542C30.0219 46.5542 38.5849 37.9912 38.5849 27.4282C38.5849 16.8653 30.0219 8.3023 19.4589 8.3023C8.89598 8.3023 0.333008 16.8653 0.333008 27.4282C0.333008 37.9912 8.89598 46.5542 19.4589 46.5542Z" fill="#FF6464"/>
<path d="M19.4607 41.7736C27.383 41.7736 33.8052 35.3514 33.8052 27.4291C33.8052 19.5069 27.383 13.0846 19.4607 13.0846C11.5385 13.0846 5.11621 19.5069 5.11621 27.4291C5.11621 35.3514 11.5385 41.7736 19.4607 41.7736Z" fill="white"/>
<path d="M19.4604 36.9918C24.7419 36.9918 29.0234 32.7103 29.0234 27.4289C29.0234 22.1474 24.7419 17.8659 19.4604 17.8659C14.1789 17.8659 9.89746 22.1474 9.89746 27.4289C9.89746 32.7103 14.1789 36.9918 19.4604 36.9918Z" fill="#FF6464"/>
<path d="M19.4602 32.2106C22.101 32.2106 24.2418 30.0699 24.2418 27.4291C24.2418 24.7883 22.101 22.6476 19.4602 22.6476C16.8195 22.6476 14.6787 24.7883 14.6787 27.4291C14.6787 30.0699 16.8195 32.2106 19.4602 32.2106Z" fill="white"/>
<path d="M19.458 28.2259C19.2541 28.2259 19.0501 28.1481 18.8946 27.9925C18.5833 27.6812 18.5833 27.1768 18.8946 26.8656L45.1927 0.567437C45.504 0.256167 46.0084 0.256167 46.3197 0.567437C46.6309 0.878707 46.6309 1.38299 46.3197 1.69426L20.0215 27.9924C19.8659 28.1482 19.6619 28.2259 19.458 28.2259Z" fill="#464655"/>
<path d="M46.3222 0.567437C46.011 0.256167 45.5066 0.256167 45.1953 0.567437L43.835 1.9278L44.9619 3.05462L46.3222 1.69426C46.6335 1.38299 46.6335 0.878797 46.3222 0.567437Z" fill="#FF6464"/>
</svg>
