<svg width="42" height="47" viewBox="0 0 42 47" fill="none" xmlns="http://www.w3.org/2000/svg">
<path d="M26.1845 35.3408C26.7623 33.4149 27.9179 31.6816 29.4586 30.3334C32.3475 27.9259 34.1772 24.2667 34.1772 20.2222C34.1772 12.7111 27.918 6.54815 20.2142 6.93336C13.3771 7.22225 7.79189 13 7.59933 19.837C7.503 24.0741 9.33266 27.8297 12.3179 30.3334C13.9549 31.6815 15.1104 33.4148 15.6882 35.3408H26.1845Z" fill="#FFCD1D"/>
<path d="M19.6357 35.5333H20.5023L16.6505 21.1852C16.7468 21.1852 16.843 21.1852 16.9393 21.1852C17.4208 21.1852 17.9023 20.9926 18.2875 20.6074C18.48 20.4148 18.6727 20.3185 18.9616 20.3185C19.2505 20.3185 19.443 20.4148 19.6357 20.6074C20.3098 21.3777 21.4653 21.3777 22.1393 20.6074C22.3319 20.4148 22.5246 20.3185 22.8134 20.3185C23.006 20.3185 23.2949 20.4148 23.4875 20.6074C23.8728 20.9926 24.2579 21.1852 24.8357 21.1852C24.932 21.1852 25.0282 21.1852 25.1246 21.1852L21.369 35.5333H22.2357L26.1838 20.5111C26.1838 20.3185 26.1838 20.1259 25.9912 20.0296C25.7987 19.9333 25.606 20.0296 25.5098 20.126C25.3172 20.3185 25.1246 20.4148 24.932 20.4148C24.6431 20.4148 24.4505 20.3185 24.1617 20.126C23.7764 19.7407 23.3913 19.5482 22.9098 19.5482C22.4282 19.5482 22.0431 19.7407 21.6579 20.126C21.2727 20.5112 20.6949 20.5112 20.3098 20.126C20.0209 19.7407 19.5394 19.5482 19.0579 19.5482C18.5764 19.5482 18.0949 19.7407 17.806 20.126C17.6135 20.3185 17.3246 20.4148 17.0357 20.4148C16.8431 20.4148 16.5542 20.3185 16.4579 20.126C16.3616 20.0296 16.169 19.9334 15.9764 20.0296C15.7839 20.126 15.6876 20.3185 15.7839 20.5111L19.6357 35.5333Z" fill="white"/>
<path d="M17.9023 44.2C18.3839 45.3555 19.5394 46.2222 20.8876 46.2222C22.2357 46.2222 23.3912 45.3555 23.8728 44.2H17.9023Z" fill="#344A5E"/>
<path d="M24.4505 44.2962H17.4208C16.4578 44.2962 15.6875 43.5259 15.6875 42.5629V35.2444H26.1838V42.5629C26.1838 43.5258 25.4134 44.2962 24.4505 44.2962Z" fill="#344A5E"/>
<path d="M26.0881 38.9036H15.6881C15.1104 38.9036 14.6289 38.4222 14.6289 37.8444C14.6289 37.2666 15.1104 36.7852 15.6881 36.7852H26.0881C26.6659 36.7852 27.1473 37.2666 27.1473 37.8444C27.1473 38.4222 26.6659 38.9036 26.0881 38.9036Z" fill="#415A6B"/>
<path d="M26.0871 42.2741H15.6872C15.1094 42.2741 14.6279 41.7926 14.6279 41.2148C14.6279 40.637 15.1094 40.1556 15.6872 40.1556H26.0871C26.6649 40.1556 27.1464 40.637 27.1464 41.2148C27.1464 41.7925 26.6649 42.2741 26.0871 42.2741Z" fill="#415A6B"/>
<path d="M20.8868 0C20.4054 0 19.9238 0.385215 19.9238 0.962992V4.23709C19.9238 4.71855 20.309 5.20009 20.8868 5.20009C21.4646 5.20009 21.8498 4.81487 21.8498 4.23709V0.962992C21.8498 0.385215 21.3683 0 20.8868 0Z" fill="#FFD15C"/>
<path d="M7.98465 5.8742C7.59944 5.48898 7.02166 5.48898 6.63653 5.8742C6.25141 6.25941 6.25132 6.83719 6.63653 7.22231L8.94764 9.53342C9.33286 9.91864 9.91064 9.91864 10.2958 9.53342C10.6809 9.14821 10.681 8.57043 10.2958 8.18531L7.98465 5.8742Z" fill="#FFD15C"/>
<path d="M4.99881 19.163H1.72471C1.24326 19.163 0.761719 19.5482 0.761719 20.126C0.761719 20.6074 1.14693 21.089 1.72471 21.089H4.99881C5.48026 21.089 5.96181 20.7037 5.96181 20.126C5.96181 19.6444 5.48026 19.163 4.99881 19.163Z" fill="#FFD15C"/>
<path d="M8.9467 30.7186L6.63559 33.0297C6.25038 33.4149 6.25038 33.9927 6.63559 34.3778C7.02081 34.7629 7.59858 34.763 7.98371 34.3778L10.2948 32.0667C10.68 31.6815 10.68 31.1037 10.2948 30.7186C9.9096 30.3334 9.33191 30.3333 8.9467 30.7186Z" fill="#FFD15C"/>
<path d="M32.8295 30.7186C32.4443 30.3334 31.8665 30.3334 31.4813 30.7186C31.0961 31.1038 31.0961 31.6816 31.4813 32.0667L33.7924 34.3778C34.1776 34.763 34.7554 34.763 35.1405 34.3778C35.5257 33.9926 35.5257 33.4148 35.1405 33.0297L32.8295 30.7186Z" fill="#FFD15C"/>
<path d="M40.0496 19.163H36.7755C36.294 19.163 35.8125 19.5482 35.8125 20.126C35.8125 20.6074 36.1977 21.089 36.7755 21.089H40.0496C40.531 21.089 41.0126 20.7037 41.0126 20.126C41.0125 19.6444 40.6274 19.163 40.0496 19.163Z" fill="#FFD15C"/>
<path d="M33.7924 5.87395L31.4813 8.18506C31.0961 8.57027 31.0961 9.14805 31.4813 9.53317C31.8665 9.91839 32.4443 9.91839 32.8294 9.53317L35.1405 7.22206C35.5257 6.83685 35.5257 6.25907 35.1405 5.87395C34.7553 5.48882 34.1776 5.48873 33.7924 5.87395Z" fill="#FFD15C"/>
</svg>
