<svg width="24" height="24" viewBox="0 0 24 24" fill="none" xmlns="http://www.w3.org/2000/svg">
<g clip-path="url(#clip0_27_2260)">
<path d="M1.12793 20.592C1.12793 21.4131 2.27084 22.2006 4.30524 22.7812C6.33963 23.3618 9.09886 23.688 11.9759 23.688C14.853 23.688 17.6122 23.3618 19.6466 22.7812C21.681 22.2006 22.8239 21.4131 22.8239 20.592C22.8239 19.7709 21.681 18.9834 19.6466 18.4028C17.6122 17.8222 14.853 17.496 11.9759 17.496C9.09886 17.496 6.33963 17.8222 4.30524 18.4028C2.27084 18.9834 1.12793 19.7709 1.12793 20.592V20.592Z" fill="#E9F0FF"/>
<path d="M20.832 6.88799H18.624C18.024 6.88799 17.52 6.38399 17.52 5.78399C17.52 5.18399 18.024 4.67999 18.624 4.67999H20.832C21.432 4.67999 21.936 5.18399 21.936 5.78399C21.936 6.38399 21.432 6.88799 20.832 6.88799ZM4.89598 6.88799H2.68798C2.08798 6.88799 1.58398 6.38399 1.58398 5.78399C1.58398 5.18399 2.08798 4.67999 2.68798 4.67999H4.89598C5.49598 4.67999 5.99998 5.18399 5.99998 5.78399C5.99998 6.38399 5.51998 6.88799 4.89598 6.88799V6.88799Z" fill="#4169E1"/>
<path opacity="0.4" d="M7.03168 21.048H3.21568C2.80768 21.048 2.47168 20.712 2.47168 20.304V16.608H7.77568V20.28C7.77568 20.712 7.43968 21.048 7.03168 21.048V21.048ZM21.1917 21.048H17.3757C16.9677 21.048 16.6317 20.712 16.6317 20.304V15.288H21.9357V20.28C21.9357 20.712 21.5997 21.048 21.1917 21.048V21.048ZM21.0477 8.64H2.90368V6.24C2.90368 3.168 5.39968 0.671997 8.47168 0.671997H17.4477C18.0237 0.671997 18.5277 1.032 18.6957 1.584L21.0477 8.64Z" fill="#AFB8F2"/>
<path d="M20.2563 17.496H1.41629C1.03229 17.496 0.696289 17.184 0.696289 16.776V8.64001H22.5363C22.9443 8.64001 23.2563 8.97601 23.2563 9.36001V14.472C23.2563 16.152 21.9123 17.496 20.2563 17.496V17.496Z" fill="#4169E1"/>
<path d="M13.7516 9.84001C15.3116 9.79201 16.6076 10.992 16.6556 12.552C16.7036 14.112 15.5036 15.408 13.9436 15.456C12.9116 15.504 11.9276 14.952 11.3996 14.04L9.45561 14.112L9.43161 13.56C9.43161 13.272 9.19161 13.032 8.90361 13.008H8.85561C8.56761 13.008 8.32761 13.248 8.30361 13.536V13.584L8.32761 14.136L7.36761 14.16C7.24761 14.16 7.15161 14.112 7.07961 14.04L6.23961 13.128C6.11961 12.984 6.09561 12.792 6.21561 12.648L6.98361 11.688C7.05561 11.592 7.15161 11.544 7.27161 11.544L11.3036 11.4C11.7836 10.488 12.7196 9.88801 13.7516 9.84001V9.84001ZM13.8236 11.736C13.2956 11.76 12.9116 12.192 12.9116 12.696C12.9356 13.224 13.3676 13.608 13.8716 13.608C14.3996 13.584 14.7836 13.152 14.7836 12.648C14.7836 12.12 14.3516 11.712 13.8236 11.736V11.736Z" fill="white"/>
</g>
<defs>
<clipPath id="clip0_27_2260">
<rect width="24" height="24" fill="white"/>
</clipPath>
</defs>
</svg>
