<svg width="42" height="42" viewBox="0 0 42 42" fill="none" xmlns="http://www.w3.org/2000/svg">
<path d="M30.2588 36.8743C31.587 35.294 32.9153 33.6152 34.1574 31.9075C35.2045 30.468 36.1441 29.0698 36.95 27.733C38.9044 24.4906 40 21.7537 40 19.5632C40 12.6247 34.4036 7 27.5 7C20.5964 7 15 12.6247 15 19.5632C15 21.7537 16.0956 24.4906 18.05 27.733C18.8559 29.0698 19.7955 30.468 20.8426 31.9075C22.0847 33.6152 23.413 35.294 24.7412 36.8743C25.2062 37.4275 27.5 40 27.5 40C27.5 40 29.7938 37.4275 30.2588 36.8743Z" fill="#C9D7FF"/>
<path d="M25.4795 33.6849C26.9139 32.0088 28.3485 30.2283 29.69 28.4171C30.8208 26.8903 31.8357 25.4073 32.706 23.9895C34.8168 20.5506 36 17.6478 36 15.3246C36 7.96562 29.9558 2 22.5 2C15.0442 2 9 7.96562 9 15.3246C9 17.6478 10.1832 20.5506 12.294 23.9895C13.1643 25.4073 14.1792 26.8903 15.31 28.4171C16.6515 30.2283 18.0861 32.0088 19.5205 33.6849C20.0227 34.2716 22.5 37 22.5 37C22.5 37 24.9773 34.2716 25.4795 33.6849ZM17.6218 26.749C16.5368 25.2842 15.5673 23.8675 14.7433 22.525C12.8838 19.4956 11.8636 16.9928 11.8636 15.3246C11.8636 9.52661 16.6257 4.82643 22.5 4.82643C28.3743 4.82643 33.1364 9.52661 33.1364 15.3246C33.1364 16.9928 32.1162 19.4956 30.2567 22.525C29.4327 23.8675 28.4632 25.2842 27.3782 26.749C26.0798 28.5021 22.5432 32.7255 22.5432 32.7255C22.5432 32.7255 18.9202 28.5021 17.6218 26.749ZM22.7045 20.9774C26.2065 20.9774 29.0455 18.1754 29.0455 14.7189C29.0455 11.2624 26.2065 8.4604 22.7045 8.4604C19.2026 8.4604 16.3636 11.2624 16.3636 14.7189C16.3636 18.1754 19.2026 20.9774 22.7045 20.9774ZM22.7045 18.151C20.7841 18.151 19.2273 16.6144 19.2273 14.7189C19.2273 12.8234 20.7841 11.2868 22.7045 11.2868C24.625 11.2868 26.1818 12.8234 26.1818 14.7189C26.1818 16.6144 24.625 18.151 22.7045 18.151Z" fill="#4169E1"/>
</svg>
