<svg width="1096" height="745" viewBox="0 0 1096 745" fill="none" xmlns="http://www.w3.org/2000/svg">
<g opacity="0.2" clip-path="url(#clip0_27_2107)">
<g opacity="0.2">
<path d="M411.129 239.691L410.352 212.757H374.365L374.883 239.691H411.129ZM405.692 216.21L406.296 236.065H379.543L379.112 216.21H405.692Z" fill="#4169E1"/>
<g opacity="0.42">
<path d="M511.927 276.984L510.115 249.359H473.696L475.163 276.984H511.927ZM505.627 252.985L506.921 273.358H479.824L478.702 252.985H505.627Z" fill="#4169E1"/>
</g>
<g opacity="0.42">
<path d="M478.185 288.81L479.479 313.414H511.841L510.288 288.81H478.185Z" fill="#4169E1"/>
</g>
<path opacity="0.42" d="M378.163 288.81L378.595 313.414H410.957L410.18 288.81H378.163Z" fill="#4169E1"/>
<path opacity="0.43" d="M542.563 140.501L544.289 162.687H575.012L573.027 140.501H542.563Z" fill="#4169E1"/>
<g opacity="0.43">
<path opacity="0.42" d="M596.846 211.03L599.003 234.338H630.502L628 211.03H596.846Z" fill="#4169E1"/>
</g>
<g opacity="0.42">
<path d="M600.298 247.633L602.542 271.545H634.472L631.883 247.633H600.298Z" fill="#4169E1"/>
</g>
<g opacity="0.42">
<path d="M550.935 247.633L552.833 271.545H584.678L582.606 247.633H550.935Z" fill="#4169E1"/>
</g>
<path opacity="0.31" d="M1069.16 67.3824L1074.94 88.4461H1104.8L1098.85 67.3824H1069.16Z" fill="#4169E1"/>
<g opacity="0.31">
<path d="M1022.9 67.3824L1028.25 88.4461H1058.11L1052.5 67.3824H1022.9Z" fill="#4169E1"/>
</g>
<g opacity="0.31">
<path opacity="0.5" d="M930.306 67.3824L934.966 88.4461H964.825L959.906 67.3824H930.306Z" fill="#4169E1"/>
</g>
<g opacity="0.31">
<path d="M791.364 67.3824L794.989 88.4461H824.848L821.051 67.3824H791.364Z" fill="#4169E1"/>
</g>
<g opacity="0.31">
<path d="M750.199 100.359L753.479 121.941H783.77L780.231 100.359H750.199Z" fill="#4169E1"/>
</g>
<path opacity="0.2" d="M945.062 134.199L949.982 156.299H980.618L975.44 134.199H945.062Z" fill="#4169E1"/>
<g opacity="0.5">
<path opacity="0.31" d="M897.685 134.199L902.172 156.299H932.808L928.062 134.199H897.685Z" fill="#4169E1"/>
</g>
<path d="M1000.81 168.903L1006.16 191.52H1037.14L1031.54 168.903H1000.81Z" fill="#4169E1"/>
<g opacity="0.5">
<path d="M808.71 168.903L812.593 191.52H843.575L839.519 168.903H808.71Z" fill="#4169E1"/>
</g>
<path d="M313.525 229.418L313.611 202.656H277.797L277.365 229.418H313.525ZM308.864 206.109L308.778 225.792H282.112L282.371 206.109H308.864Z" fill="#4169E1"/>
<path d="M1058.29 266.452L1051.47 239H1015.22L1021.7 266.452H1058.29ZM1047.5 242.626L1052.51 262.826H1025.49L1020.66 242.626H1047.5Z" fill="#4169E1"/>
<path opacity="0.2" d="M1008.58 266.452L1002.19 239H965.947L971.988 266.452H1008.58ZM998.309 242.626L1002.97 262.826H975.958L971.47 242.626H998.309Z" fill="#4169E1"/>
<path opacity="0.42" d="M313.439 266.452L313.525 239H277.279L276.848 266.452H313.439ZM308.692 242.626L308.606 262.826H281.594L281.853 242.626H308.692Z" fill="#4169E1"/>
<path opacity="0.42" d="M263.731 266.452L264.248 239H228.003L227.14 266.452H263.731ZM259.502 242.626L259.07 262.826H232.059L232.663 242.626H259.502Z" fill="#4169E1"/>
<g opacity="0.14">
<path d="M927.112 278.192L932.118 302.623H964.307L959.043 278.192H927.112Z" fill="#4169E1"/>
</g>
<g opacity="0.42">
<path d="M727.761 278.192L731.04 302.623H763.23L759.691 278.192H727.761Z" fill="#4169E1"/>
</g>
<path d="M1036.02 316.521L1041.98 341.556H1074.6L1068.3 316.521H1036.02Z" fill="#4169E1"/>
<g opacity="0.2">
<path d="M985.451 316.521L991.061 341.556H1023.68L1017.81 316.521H985.451Z" fill="#4169E1"/>
</g>
<g opacity="0.14">
<path opacity="0.42" d="M884.48 316.521L889.227 341.556H921.762L916.843 316.521H884.48Z" fill="#4169E1"/>
</g>
<path opacity="0.42" d="M682.454 316.521L685.475 341.556H718.096L714.816 316.521H682.454Z" fill="#4169E1"/>
<path d="M1045.34 355.8L1051.47 381.612H1084.52L1078.14 355.8H1045.34Z" fill="#4169E1"/>
<g opacity="0.42">
<path d="M840.728 355.8L845.129 381.612H878.181L873.435 355.8H840.728Z" fill="#4169E1"/>
</g>
<path d="M687.201 355.8L690.308 381.612H723.361L719.995 355.8H687.201Z" fill="#4169E1"/>
<path d="M584.85 355.8L587.093 381.612H620.146L617.643 355.8H584.85Z" fill="#4169E1"/>
<path d="M482.586 355.8L483.88 381.612H516.933L515.293 355.8H482.586Z" fill="#4169E1"/>
<path d="M380.234 355.8L380.752 381.612H413.805L413.028 355.8H380.234Z" fill="#4169E1"/>
<path d="M261.401 383.511L262.005 353.901H224.292L223.343 383.511H261.401ZM256.999 357.786L256.568 379.626H228.521L229.211 357.786H256.999Z" fill="#4169E1"/>
<path d="M1055.01 396.201L1061.31 422.617H1094.79L1088.23 396.201H1055.01Z" fill="#4169E1"/>
<g opacity="0.42">
<path d="M899.41 396.201L904.416 422.617H937.9L932.635 396.201H899.41Z" fill="#4169E1"/>
</g>
<g opacity="0.27">
<path opacity="0.42" d="M795.766 396.201L799.822 422.617H833.306L828.991 396.201H795.766Z" fill="#4169E1"/>
</g>
<path d="M757.448 476.312L759.778 493.146H781.008L778.505 476.312H757.448Z" fill="#4169E1"/>
<path opacity="0.45" d="M692.033 396.201L695.226 422.617H728.71L725.258 396.201H692.033Z" fill="#4169E1"/>
<path opacity="0.35" d="M679.175 424.689L675.637 394.302H637.406L640.513 424.689H679.175ZM671.149 398.187L672.53 425.466H644.138L642.929 398.187H671.149Z" fill="#4169E1"/>
<path d="M574.58 424.689L572.077 394.302H533.847L535.918 424.689H574.58ZM567.417 398.187L569.229 420.631H540.837L539.284 398.187H567.417Z" fill="#4169E1"/>
<path opacity="0.5" d="M225.5 396.201L224.637 422.617H258.121L258.639 396.201H225.5Z" fill="#4169E1"/>
<g opacity="0.5">
<path opacity="0.2" d="M173.634 396.201L172.34 422.617H205.824L206.86 396.201H173.634Z" fill="#4169E1"/>
</g>
<g opacity="0.5">
<path d="M121.768 396.201L120.042 422.617H153.526L154.993 396.201H121.768Z" fill="#4169E1"/>
</g>
<g opacity="0.5">
<path d="M69.9026 396.201L67.7451 422.617H101.229L103.128 396.201H69.9026Z" fill="#4169E1"/>
</g>
<path opacity="0.42" d="M854.708 437.724L859.368 464.831H893.284L888.365 437.724H854.708Z" fill="#4169E1"/>
<path d="M749.596 437.724L753.307 464.831H787.308L783.252 437.724H749.596Z" fill="#4169E1"/>
<path d="M631.02 466.903L627.913 435.652H589.251L591.926 466.903H631.02ZM623.253 439.71L625.497 462.759H596.673L594.688 439.71H623.253Z" fill="#4169E1"/>
<path d="M578.032 466.903L575.53 435.652H536.781L538.939 466.903H578.032ZM570.697 439.71L572.509 462.759H543.685L542.045 439.71H570.697Z" fill="#4169E1"/>
<path d="M329.23 437.724L329.317 464.831H363.232L362.887 437.724H329.23Z" fill="#4169E1"/>
<path d="M224.119 437.724L223.256 464.831H257.258L257.776 437.724H224.119Z" fill="#4169E1"/>
<g opacity="0.2">
<path d="M119.094 437.724L117.281 464.831H151.283L152.75 437.724H119.094Z" fill="#4169E1"/>
</g>
<path d="M1119.21 510.325L1111.19 478.211H1071.92L1079.52 510.325H1119.21ZM1107.13 482.355L1113 506.009H1083.75L1078.05 482.355H1107.13Z" fill="#4169E1"/>
<g opacity="0.5">
<path d="M808.71 480.283L813.025 508.167H847.458L842.798 480.283H808.71Z" fill="#4169E1"/>
</g>
<path d="M730.868 529.835L733.026 547.532H754.946L752.616 529.835H730.868Z" fill="#4169E1"/>
<g opacity="0.31">
<path d="M648.884 480.283L651.818 508.167H686.251L683.058 480.283H648.884Z" fill="#4169E1"/>
</g>
<path d="M438.227 476.83L439.694 504.714H474.127L472.401 476.83H438.227Z" fill="#4169E1"/>
<path opacity="0.47" d="M276.07 480.283L275.639 508.167H310.072L310.158 480.283H276.07Z" fill="#4169E1"/>
<path d="M151.369 510.325L153.095 478.211H113.828L111.671 510.325H151.369ZM147.744 482.355L146.449 506.009H117.28L118.834 482.355H147.744Z" fill="#4169E1"/>
<path d="M1085.47 524.051L1092.29 552.798H1127.24L1120.08 524.051H1085.47Z" fill="#4169E1"/>
<path d="M1075.89 554.956L1068.21 521.979H1028.43L1035.68 554.956H1075.89ZM1063.98 526.209L1069.59 550.553H1039.99L1034.56 526.209H1063.98Z" fill="#4169E1"/>
<path opacity="0.5" d="M923.488 524.051L928.839 552.798H963.79L958.094 524.051H923.488Z" fill="#4169E1"/>
<g opacity="0.31">
<path d="M653.458 524.051L656.392 552.798H691.343L688.064 524.051H653.458Z" fill="#4169E1"/>
</g>
<path d="M599.434 524.051L601.936 552.798H636.801L634.04 524.051H599.434Z" fill="#4169E1"/>
<path d="M283.666 517.404L283.32 545.892H318.185V517.404H283.666Z" fill="#4169E1"/>
<path opacity="0.47" d="M167.421 524.051L166.04 552.798H200.905L202.027 524.051H167.421Z" fill="#4169E1"/>
<path opacity="0.47" d="M148.952 554.956L150.765 521.979H110.981L108.823 554.956H148.952ZM145.328 526.209L143.947 550.553H114.346L115.9 526.209H145.328Z" fill="#4169E1"/>
<g opacity="0.31">
<path d="M603.318 569.114L605.907 598.637H641.29L638.442 569.114H603.318Z" fill="#4169E1"/>
</g>
<path d="M767.632 569.114L771.688 598.637H807.071L802.669 569.114H767.632Z" fill="#4169E1"/>
<path opacity="0.2" d="M548.604 569.114L550.676 598.637H586.058L583.642 569.114H548.604Z" fill="#4169E1"/>
<g opacity="0.35">
<path opacity="0.47" d="M219.977 569.114L219.114 598.637H254.497L255.101 569.114H219.977Z" fill="#4169E1"/>
</g>
<path d="M1051.73 615.385L1058.46 645.772H1094.36L1087.28 615.385H1051.73Z" fill="#4169E1"/>
<path d="M996.152 615.385L1002.37 645.772H1038.27L1031.71 615.385H996.152Z" fill="#4169E1"/>
<path d="M929.271 648.102L922.884 613.14H881.979L887.933 648.102H929.271ZM918.397 617.715L923.057 643.527H892.593L888.192 617.715H918.397Z" fill="#4169E1"/>
<path opacity="0.5" d="M704.892 648.102L700.836 613.14H660.017L663.641 648.102H704.892ZM696.09 617.715L699.024 643.527H668.56L665.885 617.715H696.09Z" fill="#4169E1"/>
<path opacity="0.5" d="M592.703 648.102L589.855 613.14H548.949L551.366 648.102H592.703ZM584.85 617.715L586.921 643.527H556.457L554.645 617.715H584.85Z" fill="#4169E1"/>
<path d="M440.73 615.385L441.852 645.772H477.753L476.286 615.385H440.73Z" fill="#4169E1"/>
<path d="M329.663 615.385L329.749 645.772H365.65L365.218 615.385H329.663Z" fill="#4169E1"/>
<path opacity="0.47" d="M256.136 648.102L256.827 613.14H215.921L214.799 648.102H256.136ZM251.39 617.715L250.872 643.527H220.408L221.185 617.715H251.39Z" fill="#4169E1"/>
<g opacity="0.5">
<path opacity="0.47" d="M163.02 615.385L161.553 645.772H197.453L198.575 615.385H163.02Z" fill="#4169E1"/>
</g>
<path d="M836.844 663.037L841.676 694.287H878.095L872.917 663.037H836.844Z" fill="#4169E1"/>
<g opacity="0.3">
<path d="M780.49 663.037L784.805 694.287H821.223L816.65 663.037H780.49Z" fill="#4169E1"/>
</g>
<path d="M724.137 663.037L727.934 694.287H764.352L760.296 663.037H724.137Z" fill="#4169E1"/>
<path d="M710.502 696.705L706.36 660.706H664.85L668.56 696.705H710.502ZM701.44 665.368L704.461 691.87H673.566L670.804 665.368H701.44Z" fill="#4169E1"/>
<path d="M442.456 663.037L443.578 694.287H479.996L478.529 663.037H442.456Z" fill="#4169E1"/>
<g opacity="0.3">
<path d="M338.293 655.699L338.379 686.863H374.798L374.28 655.699H338.293Z" fill="#4169E1"/>
</g>
<path d="M273.396 663.037L272.965 694.287H309.383L309.469 663.037H273.396Z" fill="#4169E1"/>
<path d="M160.69 663.037L159.223 694.287H195.641L196.763 663.037H160.69Z" fill="#4169E1"/>
<path opacity="0.47" d="M141.359 696.705L143.257 660.706H101.747L99.3311 696.705H141.359ZM137.562 665.368L136.095 691.87H105.199L106.925 665.368H137.562Z" fill="#4169E1"/>
<path d="M1015.91 712.071L1022.56 744.271H1059.5L1052.59 712.071H1015.91Z" fill="#4169E1"/>
<path d="M958.784 712.071L964.825 744.271H1001.76L995.375 712.071H958.784Z" fill="#4169E1"/>
<g opacity="0.31">
<path d="M730.092 712.071L733.975 744.271H770.911L766.683 712.071H730.092Z" fill="#4169E1"/>
</g>
<path d="M716.284 746.688L712.055 709.654H669.941L673.739 746.688H716.284ZM707.05 714.488L710.157 741.767H678.83L675.982 714.488H707.05Z" fill="#4169E1"/>
<path d="M600.729 746.688L597.709 709.654H555.595L558.184 746.688H600.729ZM592.617 714.488L594.775 741.767H563.448L561.549 714.488H592.617Z" fill="#4169E1"/>
<path d="M501.398 712.071L503.038 744.271H540.06L537.989 712.071H501.398Z" fill="#4169E1"/>
<path opacity="0.3" d="M279.609 692.992V716.56H306.794L306.448 692.992H279.609Z" fill="#4169E1"/>
<path opacity="0.47" d="M215.49 712.071L214.454 744.271H251.476L252.167 712.071H215.49Z" fill="#4169E1"/>
<g opacity="0.47">
<path opacity="0.3" d="M158.358 712.071L156.805 744.271H193.741L194.949 712.071H158.358Z" fill="#4169E1"/>
</g>
</g>
</g>
<defs>
<clipPath id="clip0_27_2107">
<rect width="1096" height="745" fill="white"/>
</clipPath>
</defs>
</svg>
