<svg width="2106" height="947" viewBox="0 0 2106 947" fill="none" xmlns="http://www.w3.org/2000/svg">
<g opacity="0.1" clip-path="url(#clip0_27_2291)">
<g opacity="0.3">
<path d="M814.48 1331.09L800.155 520.865L243.02 -14.1674" stroke="#4169E1" stroke-width="2" stroke-miterlimit="10"/>
<path d="M798.104 1339.35L783.659 529.191L227.411 -5.22595" stroke="#4169E1" stroke-width="1.9821" stroke-miterlimit="10"/>
<path d="M781.641 1347.59L767.282 537.459L211.671 3.77222" stroke="#4169E1" stroke-width="1.9643" stroke-miterlimit="10"/>
<path d="M765.275 1355.86L750.819 545.696L195.975 12.6818" stroke="#4169E1" stroke-width="1.9464" stroke-miterlimit="10"/>
<path d="M748.811 1364.1L734.442 553.964L180.234 21.6799" stroke="#4169E1" stroke-width="1.9286" stroke-miterlimit="10"/>
<path d="M732.401 1372.45L717.988 562.2L164.538 30.5895" stroke="#4169E1" stroke-width="1.9107" stroke-miterlimit="10"/>
<path d="M715.938 1380.69L701.525 570.437L148.798 39.5876" stroke="#4169E1" stroke-width="1.8929" stroke-miterlimit="10"/>
<path d="M699.474 1388.93L685.148 578.706L133.19 48.5291" stroke="#4169E1" stroke-width="1.875" stroke-miterlimit="10"/>
<path d="M683.068 1397.75L668.655 587.497L117.421 58.0826" stroke="#4169E1" stroke-width="1.8571" stroke-miterlimit="10"/>
<path d="M666.633 1405.43L652.308 595.211L101.753 66.4368" stroke="#4169E1" stroke-width="1.8393" stroke-miterlimit="10"/>
<path d="M650.257 1413.7L635.811 603.535L86.0134 75.4351" stroke="#4169E1" stroke-width="1.8214" stroke-miterlimit="10"/>
<path d="M633.804 1421.94L619.435 611.803L70.3171 84.3445" stroke="#4169E1" stroke-width="1.8036" stroke-miterlimit="10"/>
<path d="M617.427 1430.2L602.97 620.04L54.5763 93.3427" stroke="#4169E1" stroke-width="1.7857" stroke-miterlimit="10"/>
<path d="M600.963 1438.44L586.506 628.277L38.8803 102.252" stroke="#4169E1" stroke-width="1.7679" stroke-miterlimit="10"/>
<path d="M584.466 1446.76L570.141 636.545L23.2277 111.283" stroke="#4169E1" stroke-width="1.75" stroke-miterlimit="10"/>
<path d="M568.09 1455.03L553.666 644.782L7.53185 120.192" stroke="#4169E1" stroke-width="1.7321" stroke-miterlimit="10"/>
<path d="M551.626 1463.28L537.301 653.05L-8.20805 129.19" stroke="#4169E1" stroke-width="1.7143" stroke-miterlimit="10"/>
<path d="M535.249 1471.54L520.836 661.286L-23.9049 138.099" stroke="#4169E1" stroke-width="1.6964" stroke-miterlimit="10"/>
<path d="M518.785 1479.78L504.46 669.554L-39.6121 147.009" stroke="#4169E1" stroke-width="1.6786" stroke-miterlimit="10"/>
<path d="M502.409 1488.04L487.963 677.879L-55.3408 156.008" stroke="#4169E1" stroke-width="1.6607" stroke-miterlimit="10"/>
<path d="M485.944 1496.28L471.499 686.116L-71.0487 164.917" stroke="#4169E1" stroke-width="1.6429" stroke-miterlimit="10"/>
<path d="M469.48 1504.51L455.122 694.385L-86.69 173.947" stroke="#4169E1" stroke-width="1.625" stroke-miterlimit="10"/>
<path d="M453.115 1512.79L438.658 702.621L-102.397 182.856" stroke="#4169E1" stroke-width="1.6071" stroke-miterlimit="10"/>
<path d="M436.618 1521.1L422.282 710.889L-118.126 191.854" stroke="#4169E1" stroke-width="1.5893" stroke-miterlimit="10"/>
<path d="M420.242 1529.38L405.829 719.126L-133.833 200.763" stroke="#4169E1" stroke-width="1.5714" stroke-miterlimit="10"/>
<path d="M403.777 1537.62L389.452 727.395L-149.563 209.762" stroke="#4169E1" stroke-width="1.5536" stroke-miterlimit="10"/>
<path d="M387.401 1545.88L372.988 735.631L-165.27 218.672" stroke="#4169E1" stroke-width="1.5357" stroke-miterlimit="10"/>
<path d="M370.938 1554.12L356.525 743.868L-180.922 227.701" stroke="#4169E1" stroke-width="1.5179" stroke-miterlimit="10"/>
<path d="M354.474 1562.35L340.116 752.224L-196.618 236.611" stroke="#4169E1" stroke-width="1.5" stroke-miterlimit="10"/>
<path d="M338.097 1570.63L323.651 760.46L-212.359 245.609" stroke="#4169E1" stroke-width="1.4821" stroke-miterlimit="10"/>
<path d="M321.633 1578.86L307.275 768.729L-228.055 254.519" stroke="#4169E1" stroke-width="1.4643" stroke-miterlimit="10"/>
<path d="M305.268 1587.13L290.811 776.966L-243.795 263.517" stroke="#4169E1" stroke-width="1.4464" stroke-miterlimit="10"/>
<path d="M288.771 1595.45L274.434 785.234L-259.492 272.426" stroke="#4169E1" stroke-width="1.4286" stroke-miterlimit="10"/>
<path d="M272.395 1603.72L257.971 793.47L-275.231 281.424" stroke="#4169E1" stroke-width="1.4107" stroke-miterlimit="10"/>
<path d="M255.93 1611.96L241.506 801.707L-290.841 290.367" stroke="#4169E1" stroke-width="1.3929" stroke-miterlimit="10"/>
<path d="M239.466 1620.19L225.141 809.975L-306.548 299.276" stroke="#4169E1" stroke-width="1.375" stroke-miterlimit="10"/>
<path d="M223.09 1628.47L208.677 818.212L-322.276 308.274" stroke="#4169E1" stroke-width="1.3571" stroke-miterlimit="10"/>
<path d="M206.625 1636.7L192.267 826.568L-337.984 317.183" stroke="#4169E1" stroke-width="1.3393" stroke-miterlimit="10"/>
<path d="M190.249 1644.97L175.803 834.805L-353.713 326.181" stroke="#4169E1" stroke-width="1.3214" stroke-miterlimit="10"/>
<path d="M173.785 1653.2L159.427 843.074L-369.42 335.091" stroke="#4169E1" stroke-width="1.3036" stroke-miterlimit="10"/>
<path d="M157.408 1661.48L142.962 851.31L-385.062 344.121" stroke="#4169E1" stroke-width="1.2857" stroke-miterlimit="10"/>
<path d="M140.923 1669.79L126.499 859.547L-400.769 353.031" stroke="#4169E1" stroke-width="1.2679" stroke-miterlimit="10"/>
<path d="M124.458 1678.03L110.122 867.815L-416.499 362.029" stroke="#4169E1" stroke-width="1.25" stroke-miterlimit="10"/>
<path d="M108.082 1686.31L93.6581 876.052L-432.206 370.938" stroke="#4169E1" stroke-width="1.2321" stroke-miterlimit="10"/>
<path d="M91.6182 1694.54L77.293 884.32L-447.935 379.936" stroke="#4169E1" stroke-width="1.2143" stroke-miterlimit="10"/>
<path d="M75.2422 1702.81L60.8292 892.556L-463.642 388.845" stroke="#4169E1" stroke-width="1.1964" stroke-miterlimit="10"/>
<path d="M58.7773 1711.04L44.4192 900.913L-479.372 397.844" stroke="#4169E1" stroke-width="1.1786" stroke-miterlimit="10"/>
<path d="M42.4014 1719.32L27.9555 909.149L-494.991 406.785" stroke="#4169E1" stroke-width="1.1607" stroke-miterlimit="10"/>
<path d="M25.9375 1727.55L11.4917 917.386L-510.719 415.783" stroke="#4169E1" stroke-width="1.1429" stroke-miterlimit="10"/>
<path d="M9.47266 1735.79L-4.8854 925.654L-526.427 424.693" stroke="#4169E1" stroke-width="1.125" stroke-miterlimit="10"/>
<path d="M505.161 -775.275L477.86 89.482L1033.25 676.187" stroke="#4169E1" stroke-width="2" stroke-miterlimit="10"/>
<path d="M523.458 -781.353L496.146 82.8963L1051.27 669.208" stroke="#4169E1" stroke-width="1.9821" stroke-miterlimit="10"/>
<path d="M541.875 -787.488L514.541 76.2534L1069.29 662.229" stroke="#4169E1" stroke-width="1.9643" stroke-miterlimit="10"/>
<path d="M560.17 -793.567L532.934 69.6102L1087.3 655.249" stroke="#4169E1" stroke-width="1.9464" stroke-miterlimit="10"/>
<path d="M578.554 -799.613L551.242 62.9356L1105.41 648.302" stroke="#4169E1" stroke-width="1.9286" stroke-miterlimit="10"/>
<path d="M596.85 -805.692L569.614 56.3816L1123.39 641.411" stroke="#4169E1" stroke-width="1.9107" stroke-miterlimit="10"/>
<path d="M615.179 -811.859L587.921 49.7069L1141.41 634.432" stroke="#4169E1" stroke-width="1.8929" stroke-miterlimit="10"/>
<path d="M633.562 -817.906L606.315 43.0639L1159.52 627.484" stroke="#4169E1" stroke-width="1.875" stroke-miterlimit="10"/>
<path d="M651.858 -823.984L624.71 36.4208L1177.53 620.504" stroke="#4169E1" stroke-width="1.8571" stroke-miterlimit="10"/>
<path d="M670.154 -830.062L642.996 29.8351L1195.55 613.525" stroke="#4169E1" stroke-width="1.8393" stroke-miterlimit="10"/>
<path d="M688.57 -836.197L661.39 23.1921L1213.57 606.546" stroke="#4169E1" stroke-width="1.8214" stroke-miterlimit="10"/>
<path d="M706.866 -842.275L679.696 16.5174L1231.67 599.598" stroke="#4169E1" stroke-width="1.8036" stroke-miterlimit="10"/>
<path d="M725.25 -848.321L698.103 9.87441L1249.69 592.619" stroke="#4169E1" stroke-width="1.7857" stroke-miterlimit="10"/>
<path d="M743.545 -854.4L716.464 3.32023L1267.71 585.638" stroke="#4169E1" stroke-width="1.7679" stroke-miterlimit="10"/>
<path d="M761.875 -860.567L734.771 -3.35428L1285.81 578.691" stroke="#4169E1" stroke-width="1.75" stroke-miterlimit="10"/>
<path d="M780.258 -866.614L753.165 -9.99745L1303.83 571.712" stroke="#4169E1" stroke-width="1.7321" stroke-miterlimit="10"/>
<path d="M798.554 -872.692L771.472 -16.6721L1321.85 564.732" stroke="#4169E1" stroke-width="1.7143" stroke-miterlimit="10"/>
<path d="M816.938 -878.738L789.845 -23.2262L1339.95 557.785" stroke="#4169E1" stroke-width="1.6964" stroke-miterlimit="10"/>
<path d="M835.266 -884.906L808.239 -29.8695L1357.97 550.805" stroke="#4169E1" stroke-width="1.6786" stroke-miterlimit="10"/>
<path d="M853.562 -890.984L826.546 -36.5442L1375.99 543.826" stroke="#4169E1" stroke-width="1.6607" stroke-miterlimit="10"/>
<path d="M871.946 -897.03L844.952 -43.1868L1394.01 536.847" stroke="#4169E1" stroke-width="1.6429" stroke-miterlimit="10"/>
<path d="M890.241 -903.108L863.313 -49.7412L1412.11 529.898" stroke="#4169E1" stroke-width="1.625" stroke-miterlimit="10"/>
<path d="M908.658 -909.243L881.62 -56.4158L1430.13 522.919" stroke="#4169E1" stroke-width="1.6071" stroke-miterlimit="10"/>
<path d="M926.955 -915.321L900.015 -63.0587L1448.14 515.94" stroke="#4169E1" stroke-width="1.5893" stroke-miterlimit="10"/>
<path d="M945.25 -921.4L918.333 -69.7335L1466.22 509.081" stroke="#4169E1" stroke-width="1.5714" stroke-miterlimit="10"/>
<path d="M963.634 -927.446L936.728 -76.3763L1484.24 502.102" stroke="#4169E1" stroke-width="1.5536" stroke-miterlimit="10"/>
<path d="M981.962 -933.613L955.089 -82.9307L1502.25 495.122" stroke="#4169E1" stroke-width="1.5357" stroke-miterlimit="10"/>
<path d="M1000.26 -939.692L973.396 -89.6053L1520.27 488.142" stroke="#4169E1" stroke-width="1.5179" stroke-miterlimit="10"/>
<path d="M1018.64 -945.738L991.801 -96.2481L1538.38 481.195" stroke="#4169E1" stroke-width="1.5" stroke-miterlimit="10"/>
<path d="M1036.94 -951.817L1010.11 -102.923L1556.39 474.216" stroke="#4169E1" stroke-width="1.4821" stroke-miterlimit="10"/>
<path d="M1055.36 -957.952L1028.47 -109.477L1574.41 467.236" stroke="#4169E1" stroke-width="1.4643" stroke-miterlimit="10"/>
<path d="M1073.65 -964.03L1046.87 -116.12L1592.52 460.289" stroke="#4169E1" stroke-width="1.4464" stroke-miterlimit="10"/>
<path d="M1091.95 -970.108L1065.18 -122.795L1610.53 453.309" stroke="#4169E1" stroke-width="1.4286" stroke-miterlimit="10"/>
<path d="M1110.33 -976.154L1083.58 -129.438L1628.55 446.33" stroke="#4169E1" stroke-width="1.4107" stroke-miterlimit="10"/>
<path d="M1128.66 -982.321L1101.85 -136.024L1646.57 439.351" stroke="#4169E1" stroke-width="1.3929" stroke-miterlimit="10"/>
<path d="M1147.04 -988.368L1120.25 -142.667L1664.67 432.403" stroke="#4169E1" stroke-width="1.375" stroke-miterlimit="10"/>
<path d="M1165.34 -994.446L1138.65 -149.309L1682.69 425.423" stroke="#4169E1" stroke-width="1.3571" stroke-miterlimit="10"/>
<path d="M1183.63 -1000.52L1156.96 -155.984L1700.71 418.444" stroke="#4169E1" stroke-width="1.3393" stroke-miterlimit="10"/>
<path d="M1202.05 -1006.66L1175.32 -162.539L1718.81 411.496" stroke="#4169E1" stroke-width="1.3214" stroke-miterlimit="10"/>
<path d="M1220.35 -1012.74L1193.72 -169.182L1736.83 404.517" stroke="#4169E1" stroke-width="1.3036" stroke-miterlimit="10"/>
<path d="M1238.73 -1018.78L1212.03 -175.856L1754.85 397.537" stroke="#4169E1" stroke-width="1.2857" stroke-miterlimit="10"/>
<path d="M1257.03 -1024.86L1230.43 -182.499L1772.86 390.558" stroke="#4169E1" stroke-width="1.2679" stroke-miterlimit="10"/>
<path d="M1275.35 -1031.03L1248.7 -189.085L1790.97 383.61" stroke="#4169E1" stroke-width="1.25" stroke-miterlimit="10"/>
<path d="M1293.74 -1037.08L1267.1 -195.727L1808.99 376.63" stroke="#4169E1" stroke-width="1.2321" stroke-miterlimit="10"/>
<path d="M1312.04 -1043.15L1285.5 -202.371L1826.97 369.74" stroke="#4169E1" stroke-width="1.2143" stroke-miterlimit="10"/>
<path d="M1330.33 -1049.23L1303.81 -209.045L1845.08 362.793" stroke="#4169E1" stroke-width="1.1964" stroke-miterlimit="10"/>
<path d="M1348.75 -1055.37L1322.17 -215.599L1863.1 355.813" stroke="#4169E1" stroke-width="1.1786" stroke-miterlimit="10"/>
<path d="M1367.04 -1061.45L1340.48 -222.274L1881.11 348.834" stroke="#4169E1" stroke-width="1.1607" stroke-miterlimit="10"/>
<path d="M1385.43 -1067.49L1358.88 -228.918L1899.13 341.853" stroke="#4169E1" stroke-width="1.1429" stroke-miterlimit="10"/>
<path d="M1403.72 -1073.57L1377.27 -235.561L1917.23 334.906" stroke="#4169E1" stroke-width="1.125" stroke-miterlimit="10"/>
<path d="M1422.02 -1079.65L1395.55 -242.146L1935.25 327.927" stroke="#4169E1" stroke-width="1.1071" stroke-miterlimit="10"/>
<path d="M1440.44 -1085.78L1413.95 -248.789L1953.27 320.947" stroke="#4169E1" stroke-width="1.0893" stroke-miterlimit="10"/>
<path d="M1458.73 -1091.86L1432.35 -255.433L1971.38 314" stroke="#4169E1" stroke-width="1.0714" stroke-miterlimit="10"/>
<path d="M1477.12 -1097.9L1450.66 -262.107L1989.39 307.021" stroke="#4169E1" stroke-width="1.0536" stroke-miterlimit="10"/>
<path d="M1495.41 -1103.98L1469.02 -268.661L2007.41 300.041" stroke="#4169E1" stroke-width="1.0357" stroke-miterlimit="10"/>
<path d="M1513.74 -1110.15L1487.33 -275.336L2025.43 293.061" stroke="#4169E1" stroke-width="1.0179" stroke-miterlimit="10"/>
<path d="M1532.12 -1116.2L1505.73 -281.979L2043.53 286.114" stroke="#4169E1" stroke-miterlimit="10"/>
</g>
</g>
<defs>
<clipPath id="clip0_27_2291">
<rect width="2106" height="947" fill="white" transform="matrix(-1 0 0 1 2106 0)"/>
</clipPath>
</defs>
</svg>
