<svg width="1186" height="856" viewBox="0 0 1186 856" fill="none" xmlns="http://www.w3.org/2000/svg">
<g opacity="0.1" clip-path="url(#clip0_27_1756)">
<g opacity="0.35">
<path d="M1211.02 590.709L1210.36 590.379L973.38 453.599L975.032 452.608L1211.02 316.489L1211.68 316.819L1448.67 453.599L1447.01 454.59L1211.02 590.709ZM977.346 453.599L1211.02 588.396L1444.7 453.599L1211.02 318.802L977.346 453.599Z" fill="#4169E1"/>
<path d="M1092.7 386.531L772.094 201.515H581.053H580.723L460.083 131.803V18.8113H462.066V130.482L581.384 199.532H772.755L1093.69 384.879L1092.7 386.531Z" fill="#4169E1"/>
<path d="M1131.04 364.395L805.477 176.405V64.7349L689.134 -2.33342L690.125 -3.98535L807.46 63.7438V175.414L1132.03 362.743L1131.04 364.395Z" fill="#4169E1"/>
<path d="M1171.36 341.268L979.33 230.588V134.777L979.991 134.446L1312.16 -57.5081L1313.16 -55.8561L981.313 135.768V229.267L1172.35 339.285L1171.36 341.268Z" fill="#4169E1"/>
<path d="M138.818 766.805H138.487H138.157L8.2627 691.807L9.25424 690.155L139.149 764.822H432.65L644.844 642.249H820.35L1061.96 503.157L1062.95 504.809L821.011 644.232H645.505L433.311 766.805H138.818Z" fill="#4169E1"/>
<path d="M500.407 681.565L499.415 679.913L604.52 619.122H806.137L1034.53 487.298L1035.52 488.95L806.468 621.105H605.181L500.407 681.565Z" fill="#4169E1"/>
<path d="M929.752 549.411L762.179 452.608H642.53L565.189 497.21L564.197 495.558L642.2 450.625H762.84L930.744 547.759L929.752 549.411Z" fill="#4169E1"/>
<path d="M473.965 790.923L472.974 789.271L566.511 735.418V689.164H568.494V736.409L568.163 736.74L473.965 790.923Z" fill="#4169E1"/>
<path d="M1140.29 87.8619H1063.94V85.8796H1139.96L1275.81 7.57812L1276.8 9.23013L1140.29 87.8619Z" fill="#4169E1"/>
<path d="M1136.33 319.132H1134.34V269.905L1039.81 215.391V162.199H1041.8V214.4L1136.33 268.913V319.132Z" fill="#4169E1"/>
<path d="M1145.58 1057.21H1143.6V949.508L887.445 801.495V682.556L887.776 682.226L1130.38 542.473L1131.37 544.125L889.428 683.878V800.504L1145.58 948.186V1057.21Z" fill="#4169E1"/>
<path d="M1164.69 562.292L986.59 664.939L987.58 666.656L1165.68 564.009L1164.69 562.292Z" fill="#4169E1"/>
<path d="M992.55 702.379H927.769V700.397H991.889L1197.8 581.458L1198.79 583.11L992.55 702.379Z" fill="#4169E1"/>
<path d="M1102.28 751.607L1101.29 749.955L1269.53 652.822V613.506L1220.28 584.762L1221.27 583.11L1271.51 612.184V653.813L1271.18 654.143L1102.28 751.607Z" fill="#4169E1"/>
<path d="M1091.05 721.212L1090.05 719.56L1165.74 675.949H1229.2V677.931H1166.4L1091.05 721.212Z" fill="#4169E1"/>
<path d="M1092.37 814.38L1091.38 812.728L1169.05 768.126V732.114L1169.38 731.784L1257.3 681.235V660.42H1259.28V682.226L1258.95 682.556L1171.03 733.105V769.117L1170.37 769.448L1092.37 814.38Z" fill="#4169E1"/>
<path d="M1084.43 724.185C1088.07 726.167 1093.69 726.167 1096.99 724.185C1100.63 722.203 1100.63 718.899 1096.99 716.916C1093.36 714.934 1087.74 714.934 1084.43 716.916C1080.8 718.899 1080.8 722.203 1084.43 724.185Z" fill="#4169E1"/>
<path d="M1095.34 754.25C1098.98 756.232 1104.6 756.232 1107.9 754.25C1111.54 752.268 1111.54 748.964 1107.9 746.982C1104.27 744.999 1098.65 744.999 1095.34 746.982C1091.71 748.964 1091.71 752.268 1095.34 754.25Z" fill="#4169E1"/>
<path d="M749.949 845.106C753.584 847.089 759.203 847.089 762.508 845.106C766.144 843.124 766.144 839.82 762.508 837.838C758.873 835.855 753.254 835.855 749.949 837.838C746.643 839.82 746.643 843.124 749.949 845.106Z" fill="#4169E1"/>
<path d="M1085.76 817.354C1089.39 819.336 1095.01 819.336 1098.32 817.354C1101.95 815.372 1101.95 812.068 1098.32 810.085C1094.68 808.103 1089.06 808.103 1085.76 810.085C1082.12 812.068 1082.12 815.372 1085.76 817.354Z" fill="#4169E1"/>
<path d="M921.489 705.023C925.124 707.005 930.743 707.005 934.048 705.023C937.684 703.04 937.684 699.736 934.048 697.754C930.413 695.772 924.794 695.772 921.489 697.754C917.853 699.736 917.853 703.04 921.489 705.023Z" fill="#4169E1"/>
<path d="M562.213 497.54C565.849 499.523 571.468 499.523 574.773 497.54C578.409 495.558 578.409 492.254 574.773 490.272C571.137 488.29 565.518 488.29 562.213 490.272C558.908 492.585 558.908 495.558 562.213 497.54Z" fill="#4169E1"/>
<path d="M714.253 369.35C717.889 371.333 723.508 371.333 726.813 369.35C730.449 367.368 730.449 364.064 726.813 362.082C723.177 360.1 717.559 360.1 714.253 362.082C710.948 364.064 710.948 367.368 714.253 369.35Z" fill="#4169E1"/>
<path d="M800.188 413.622C803.824 415.605 809.442 415.605 812.748 413.622C816.383 411.64 816.383 408.336 812.748 406.354C809.112 404.372 803.493 404.372 800.188 406.354C796.883 408.336 796.883 411.64 800.188 413.622Z" fill="#4169E1"/>
<path d="M882.818 344.241C886.453 346.224 892.072 346.224 895.377 344.241C899.013 342.259 899.013 338.955 895.377 336.973C891.742 334.991 886.123 334.991 882.818 336.973C879.513 338.955 879.513 341.929 882.818 344.241Z" fill="#4169E1"/>
<path d="M1034.53 165.833C1038.16 167.815 1043.78 167.815 1047.09 165.833C1050.72 163.851 1050.72 160.547 1047.09 158.564C1043.45 156.582 1037.83 156.582 1034.53 158.564C1031.22 160.547 1031.22 163.851 1034.53 165.833Z" fill="#4169E1"/>
<path d="M452.812 23.4366C456.447 25.4189 462.066 25.4189 465.372 23.4366C469.007 21.4543 469.007 18.1504 465.372 16.1681C461.736 14.1858 456.117 14.1858 452.812 16.1681C449.176 18.1504 449.176 21.4543 452.812 23.4366Z" fill="#4169E1"/>
<path d="M683.184 0.309673C686.82 2.29199 692.438 2.29199 695.744 0.309673C699.379 -1.67264 699.379 -4.97651 695.744 -6.95882C692.108 -8.94114 686.489 -8.94114 683.184 -6.95882C679.548 -4.97651 679.548 -1.67264 683.184 0.309673Z" fill="#4169E1"/>
<path d="M1140.62 178.057C1144.26 180.04 1149.88 180.04 1153.18 178.057C1156.82 176.075 1156.82 172.771 1153.18 170.789C1149.55 168.806 1143.93 168.806 1140.62 170.789C1136.99 172.771 1136.99 176.075 1140.62 178.057Z" fill="#4169E1"/>
<path d="M1152.19 113.302C1155.83 115.284 1161.45 115.284 1164.75 113.302C1168.39 111.319 1168.39 108.015 1164.75 106.033C1161.12 104.051 1155.5 104.051 1152.19 106.033C1148.56 108.015 1148.56 111.319 1152.19 113.302Z" fill="#4169E1"/>
<path d="M919.175 487.629C922.811 489.611 928.43 489.611 931.735 487.629C935.37 485.646 935.37 482.343 931.735 480.36C928.099 478.378 922.48 478.378 919.175 480.36C915.539 482.343 915.539 485.316 919.175 487.629Z" fill="#4169E1"/>
<path d="M768.458 496.549C772.094 498.531 777.713 498.531 781.018 496.549C784.654 494.567 784.654 491.263 781.018 489.281C777.382 487.298 771.764 487.298 768.458 489.281C765.153 491.263 765.153 494.567 768.458 496.549Z" fill="#4169E1"/>
<path d="M467.355 793.896C470.99 795.879 476.609 795.879 479.914 793.896C483.55 791.914 483.55 788.61 479.914 786.628C476.279 784.646 470.66 784.646 467.355 786.628C463.719 788.61 463.719 791.914 467.355 793.896Z" fill="#4169E1"/>
<path d="M346.384 476.396C350.02 478.378 355.639 478.378 358.944 476.396C362.579 474.413 362.579 471.109 358.944 469.127C355.308 467.145 349.689 467.145 346.384 469.127C342.748 471.109 342.748 474.413 346.384 476.396Z" fill="#4169E1"/>
<path d="M493.465 682.556C497.101 684.539 502.72 684.539 506.025 682.556C509.661 680.574 509.661 677.27 506.025 675.288C502.389 673.305 496.77 673.305 493.465 675.288C490.16 677.27 490.16 680.574 493.465 682.556Z" fill="#4169E1"/>
<path d="M2.64378 694.45C6.2795 696.433 11.8983 696.433 15.2035 694.45C18.8392 692.468 18.8392 689.164 15.2035 687.182C11.5678 685.199 5.94898 685.199 2.64378 687.182C-0.991937 689.164 -0.991937 692.468 2.64378 694.45Z" fill="#4169E1"/>
<path d="M980.652 669.671C984.287 671.654 989.906 671.654 993.211 669.671C996.847 667.689 996.847 664.385 993.211 662.403C989.576 660.42 983.957 660.42 980.652 662.403C977.347 664.385 977.347 667.359 980.652 669.671Z" fill="#4169E1"/>
<path d="M1005.44 506.13H962.474H962.143L923.803 483.994L924.794 482.343L962.804 504.148H1005.44V506.13Z" fill="#4169E1"/>
<path d="M721.194 366.377L720.202 364.725L824.646 304.265H896.039V304.595L988.254 357.787H1046.43V359.769H987.593V359.439L895.378 306.247H825.307L721.194 366.377Z" fill="#4169E1"/>
<path d="M993.542 443.687L889.098 383.557H854.724L808.782 409.988L807.79 408.336L854.393 381.575H889.759L994.534 442.035L993.542 443.687Z" fill="#4169E1"/>
<path d="M966.44 426.177H964.457V385.209L888.768 341.268L889.759 339.616L966.44 383.887V426.177Z" fill="#4169E1"/>
<path d="M356.961 1045.65L355.97 1044L623.03 889.708V791.584H623.691L1092.7 520.667L1093.69 522.65L625.013 792.905V890.699L624.682 891.03L356.961 1045.65Z" fill="#4169E1"/>
<path d="M756.89 842.463L755.898 840.811L844.478 789.602V732.114L887.776 707.335L888.767 708.987L846.461 733.436V790.593L846.13 790.923L756.89 842.463Z" fill="#4169E1"/>
<path d="M895.047 529.257H835.553L835.223 528.927L774.407 493.906L775.399 492.254L836.214 527.275H895.047V529.257Z" fill="#4169E1"/>
<path d="M570.807 599.63H570.476L354.316 474.744L355.308 473.092L571.137 597.647H843.486V599.63H570.807Z" fill="#4169E1"/>
<path d="M1236.8 332.017H1234.82V226.624L1147.56 176.075L1148.56 174.423L1236.8 225.302V332.017Z" fill="#4169E1"/>
<path d="M1236.14 270.235L1235.15 268.583L1298.61 231.91V191.933L1157.81 110.658L1158.8 108.676L1300.6 190.612V233.231H1300.26L1236.14 270.235Z" fill="#4169E1"/>
<path d="M664.675 1051.93L663.684 1050.28L769.78 989.154V897.307L770.441 896.977L912.896 814.711L913.887 816.363L771.764 898.298V990.145L771.433 990.476L664.675 1051.93Z" fill="#4169E1"/>
</g>
</g>
<defs>
<clipPath id="clip0_27_1756">
<rect width="1186" height="863" fill="white" transform="translate(0 -7)"/>
</clipPath>
</defs>
</svg>
